<svg width="158" height="138" viewBox="0 0 158 138" fill="none" xmlns="http://www.w3.org/2000/svg">
<path d="M54.342 62.6803L62.1246 69.9192V76.5L49.4779 85.0551L39.8106 75.225L54.342 62.6803Z" fill="#E5E5E5"/>
<path d="M93.2895 73.0687L87.6958 78.6624L96.0864 86.6534L104.477 94.6444L118 82.6579L103.678 70.6714L96.4859 76.2651L93.2895 73.0687Z" fill="#E5E5E5"/>
<rect x="87.6958" y="30.7163" width="4.7946" height="47.946" fill="#E5E5E5"/>
<path d="M55.7317 80.2605L62.2152 73.7835V29.118H69.2881V35.0062H74.0033V29.118H82.255V35.0062H86.9703V29.118H94.0432V73.7835L97.2849 77.022" stroke="#ADADAD" stroke-width="3.42105"/>
<path d="M81 47H76V58H81V47Z" fill="#ADADAD"/>
<path d="M79.5925 21.7295L63.2706 14.7343L79.5925 7.73922V21.7295Z" fill="#FFD25D" stroke="#ADADAD" stroke-width="3.42105"/>
<rect x="78.1067" y="21.1271" width="3.1964" height="9.5892" fill="#ADADAD"/>
<path d="M39.7498 75.4659L54.6663 62.6803L62.1246 69.0731" stroke="#ADADAD" stroke-width="3.42105"/>
<path d="M117.262 81.8587L103.678 69.8722L95.6867 77.0641" stroke="#ADADAD" stroke-width="3.42105"/>
</svg>
