<svg width="158" height="138" viewBox="0 0 158 138" fill="none" xmlns="http://www.w3.org/2000/svg">
<path d="M49.0658 17.6842L108.934 17.6842L138.868 69L108.934 120.316H49.0658L19.1316 69L49.0658 17.6842Z" fill="#E5E5E5"/>
<path d="M108.771 64.3572L119.564 33.1766L130.357 64.3572H108.771Z" fill="white" stroke="#ADADAD" stroke-width="3.42105"/>
<rect x="118.098" y="64.6016" width="4.3985" height="10.2632" fill="#ADADAD"/>
<path d="M28.3758 64.3572L39.1691 33.1766L49.9624 64.3572H28.3758Z" fill="white" stroke="#ADADAD" stroke-width="3.42105"/>
<rect x="37.7031" y="64.6016" width="4.3985" height="10.2632" fill="#ADADAD"/>
<path d="M48.1693 88.0603L58.9626 56.8797L69.7559 88.0603H48.1693Z" fill="white" stroke="#ADADAD" stroke-width="3.42105"/>
<rect x="57.4966" y="88.3047" width="4.3985" height="10.2632" fill="#ADADAD"/>
<path d="M48.1693 40.4098L58.9626 9.2292L69.7559 40.4098H48.1693Z" fill="white" stroke="#ADADAD" stroke-width="3.42105"/>
<rect x="57.4966" y="40.6542" width="4.3985" height="10.2632" fill="#ADADAD"/>
<path d="M89.7106 88.0603L100.504 56.8797L111.297 88.0603H89.7106Z" fill="white" stroke="#ADADAD" stroke-width="3.42105"/>
<rect x="99.0376" y="88.3047" width="4.3985" height="10.2632" fill="#ADADAD"/>
<path d="M89.7106 40.4098L100.504 9.2292L111.297 40.4098H89.7106Z" fill="white" stroke="#ADADAD" stroke-width="3.42105"/>
<rect x="99.0376" y="40.6542" width="4.3985" height="10.2632" fill="#ADADAD"/>
<path d="M69.6727 106.387L80.466 75.2066L91.2593 106.387H69.6727Z" fill="white" stroke="#ADADAD" stroke-width="3.42105"/>
<rect x="79" y="106.632" width="4.3985" height="10.2632" fill="#ADADAD"/>
<path d="M69.6727 64.3572L80.466 33.1766L91.2593 64.3572H69.6727Z" fill="white" stroke="#ADADAD" stroke-width="3.42105"/>
<rect x="79" y="64.6016" width="4.3985" height="10.2632" fill="#ADADAD"/>
</svg>
