<svg width="42" height="42" viewBox="0 0 42 42" fill="none" xmlns="http://www.w3.org/2000/svg">
<path d="M0 20.5263C0 9.18995 9.18995 0 20.5263 0V0C31.8627 0 41.0526 9.18995 41.0526 20.5263V20.5263C41.0526 31.8627 31.8627 41.0526 20.5263 41.0526V41.0526C9.18995 41.0526 0 31.8627 0 20.5263V20.5263Z" fill="black"/>
<path d="M13.8082 30H27.3242V25.5125H20.2035C21.2783 23.2016 27.163 21.0788 27.163 16.7795C27.163 12.937 24.1803 10.8411 20.4184 10.8411C16.0385 10.8411 14.1575 13.77 13.6201 15.8659L18.2419 17.2094C18.5375 16.3227 19.1824 15.6509 20.1766 15.6509C21.1439 15.6509 21.7351 16.1884 21.7351 16.9945C21.7351 19.6816 13.8082 22.6374 13.8082 28.2802V30Z" fill="#FF5C28"/>
</svg>
