<svg width="42" height="42" viewBox="0 0 42 42" fill="none" xmlns="http://www.w3.org/2000/svg">
<path d="M0 20.5263C0 9.18995 9.18995 0 20.5263 0V0C31.8627 0 41.0526 9.18995 41.0526 20.5263V20.5263C41.0526 31.8627 31.8627 41.0526 20.5263 41.0526V41.0526C9.18995 41.0526 0 31.8627 0 20.5263V20.5263Z" fill="black"/>
<path d="M26.4868 11.1904H14.583V15.7316H20.3333L17.3507 18.5262V22.4762H20.199C21.4351 22.4762 21.9725 23.2554 21.9725 23.9809C21.9725 24.8408 21.3544 25.5394 20.3065 25.5394C19.366 25.5394 18.6674 24.8408 18.3718 23.9272L13.75 25.2439C14.2337 27.3398 15.9803 30.3493 20.4677 30.3493C24.4715 30.3493 27.3735 27.716 27.3735 23.766C27.3735 20.2728 25.5194 18.7411 23.4235 18.2575L26.4868 15.6779V11.1904Z" fill="#FFD25D"/>
</svg>
