<svg width="42" height="42" viewBox="0 0 42 42" fill="none" xmlns="http://www.w3.org/2000/svg">
<path d="M0 20.5263C0 9.18995 9.18995 0 20.5263 0V0C31.8627 0 41.0526 9.18995 41.0526 20.5263V20.5263C41.0526 31.8627 31.8627 41.0526 20.5263 41.0526V41.0526C9.18995 41.0526 0 31.8627 0 20.5263V20.5263Z" fill="black"/>
<path d="M20.3747 25.5394C19.4073 25.5394 18.5743 25.002 18.3325 23.9272L13.7107 25.2439C14.1944 27.3398 16.1559 30.3493 20.6702 30.3493C24.6471 30.3493 27.6835 27.4741 27.6835 23.6585C27.6835 19.9503 24.8621 17.3976 21.557 17.3976C20.8852 17.3976 20.1597 17.4782 19.2998 17.8275L19.4073 15.7316H26.4206V11.1904H14.6512L14.275 21.885L18.5743 22.6911C18.8968 22.2343 19.4073 21.7775 20.3209 21.7775C21.6645 21.7775 22.2825 22.6911 22.2825 23.6585C22.2825 24.8408 21.3689 25.5394 20.3747 25.5394Z" fill="#FFD25D"/>
</svg>
