<svg width="77" height="84" viewBox="0 0 77 84" fill="none" xmlns="http://www.w3.org/2000/svg">
<path d="M15.1079 64.2767C17.074 66.2428 19.6959 67.1533 22.2694 67.0083V68.1465C22.2694 73.6775 26.7532 78.1613 32.2842 78.1613C35.0172 78.1613 37.4931 77.0676 39.2994 75.2935C41.1058 77.0676 43.5816 78.1613 46.3146 78.1613C51.8456 78.1613 56.3294 73.6775 56.3294 68.1465V66.9937C58.4752 66.8238 60.5736 65.9181 62.2151 64.2766C65.823 60.6688 65.8763 54.8523 62.3749 51.1792C66.9162 48.7841 70.0118 44.0159 70.0118 38.5248V21.9703L70.0119 21.9583V21.9496V15.0111C70.0119 9.88254 65.8543 5.725 60.7258 5.725C55.5972 5.725 51.4396 9.88253 51.4396 15.0111V15.7472H25.2973V15.0111C25.2973 9.88255 21.1397 5.72501 16.0112 5.72501C10.8826 5.72501 6.72504 9.88255 6.72504 15.0111L6.725 38.5248C6.725 44.1752 10.0029 49.0601 14.7608 51.3816C11.4499 55.063 11.5656 60.7344 15.1079 64.2767L18.1308 61.2539L15.1079 64.2767Z" stroke="#FFD25D" stroke-width="8.55"/>
<path fill-rule="evenodd" clip-rule="evenodd" d="M59.1922 61.2538C61.1847 59.2613 61.1847 56.0309 59.1922 54.0384L51.075 45.9211L48.6202 48.3759H28.7028L26.2481 45.9212L18.1308 54.0385C16.1384 56.031 16.1384 59.2614 18.1308 61.2539C20.1233 63.2463 23.3537 63.2463 25.3462 61.2539L26.5443 60.0557V63.1174C26.5443 63.1285 26.5444 63.1397 26.5444 63.1508V68.1465C26.5444 71.3165 29.1142 73.8863 32.2842 73.8863C35.2387 73.8863 37.6719 71.654 37.989 68.784H40.6099C40.927 71.654 43.3601 73.8863 46.3146 73.8863C49.4846 73.8863 52.0544 71.3165 52.0544 68.1465V63.144L52.0545 63.1174V61.3298C54.0523 63.2459 57.2254 63.2206 59.1922 61.2538Z" fill="white"/>
<path d="M59.1922 54.0384L57.9827 55.2479L57.9827 55.2479L59.1922 54.0384ZM59.1922 61.2538L57.9827 60.0442L57.9827 60.0442L59.1922 61.2538ZM51.075 45.9211L52.2845 44.7116L51.075 43.5021L49.8654 44.7116L51.075 45.9211ZM48.6202 48.3759V50.0864H49.3287L49.8297 49.5854L48.6202 48.3759ZM28.7028 48.3759L27.4932 49.5854L27.9942 50.0864H28.7028V48.3759ZM26.2481 45.9212L27.4576 44.7117L26.2481 43.5022L25.0386 44.7117L26.2481 45.9212ZM18.1308 54.0385L19.3403 55.248L19.3403 55.248L18.1308 54.0385ZM25.3462 61.2539L24.1367 60.0443L24.1367 60.0443L25.3462 61.2539ZM26.5443 60.0557H28.2549V55.9261L25.3348 58.8462L26.5443 60.0557ZM26.5444 63.1508L28.255 63.1508L28.2549 63.141L26.5444 63.1508ZM37.989 68.784V67.0735H36.4571L36.2888 68.5961L37.989 68.784ZM40.6099 68.784L42.31 68.5961L42.1418 67.0735H40.6099V68.784ZM52.0544 63.144L50.3439 63.14V63.144H52.0544ZM52.0545 63.1174L53.765 63.1213V63.1174H52.0545ZM52.0545 61.3298L53.2385 60.0952L50.3439 57.3191V61.3298H52.0545ZM57.9827 55.2479C59.3072 56.5724 59.3072 58.7198 57.9827 60.0442L60.4017 62.4633C63.0622 59.8028 63.0622 55.4894 60.4017 52.8289L57.9827 55.2479ZM49.8654 47.1307L57.9827 55.2479L60.4017 52.8289L52.2845 44.7116L49.8654 47.1307ZM49.8297 49.5854L52.2845 47.1307L49.8654 44.7116L47.4107 47.1664L49.8297 49.5854ZM28.7028 50.0864H48.6202V46.6654H28.7028V50.0864ZM25.0386 47.1308L27.4932 49.5854L29.9123 47.1664L27.4576 44.7117L25.0386 47.1308ZM19.3403 55.248L27.4576 47.1308L25.0386 44.7117L16.9213 52.829L19.3403 55.248ZM19.3403 60.0443C18.0159 58.7199 18.0159 56.5725 19.3403 55.248L16.9213 52.829C14.2608 55.4895 14.2608 59.8029 16.9213 62.4634L19.3403 60.0443ZM24.1367 60.0443C22.8122 61.3688 20.6648 61.3688 19.3403 60.0443L16.9213 62.4634C19.5818 65.1239 23.8952 65.1239 26.5557 62.4634L24.1367 60.0443ZM25.3348 58.8462L24.1367 60.0443L26.5557 62.4634L27.7539 61.2652L25.3348 58.8462ZM28.2549 63.1174V60.0557H24.8338V63.1174H28.2549ZM28.2549 63.141C28.2549 63.1331 28.2549 63.1252 28.2549 63.1174H24.8338C24.8338 63.1318 24.8339 63.1463 24.8339 63.1606L28.2549 63.141ZM28.255 68.1465V63.1508H24.8339V68.1465H28.255ZM32.2842 72.1758C30.0589 72.1758 28.255 70.3718 28.255 68.1465H24.8339C24.8339 72.2612 28.1695 75.5968 32.2842 75.5968V72.1758ZM36.2888 68.5961C36.0664 70.609 34.3571 72.1758 32.2842 72.1758V75.5968C36.1204 75.5968 39.2773 72.699 39.6892 68.9719L36.2888 68.5961ZM40.6099 67.0735H37.989V70.4945H40.6099V67.0735ZM46.3146 72.1758C44.2417 72.1758 42.5325 70.609 42.31 68.5961L38.9097 68.9719C39.3215 72.699 42.4785 75.5968 46.3146 75.5968V72.1758ZM50.3439 68.1465C50.3439 70.3718 48.5399 72.1758 46.3146 72.1758V75.5968C50.4293 75.5968 53.7649 72.2612 53.7649 68.1465H50.3439ZM50.3439 63.144V68.1465H53.7649V63.144H50.3439ZM50.3439 63.1135L50.3439 63.14L53.7649 63.1479L53.765 63.1213L50.3439 63.1135ZM50.3439 61.3298V63.1174H53.765V61.3298H50.3439ZM57.9827 60.0442C56.6754 61.3515 54.566 61.3685 53.2385 60.0952L50.8705 62.5643C53.5387 65.1233 57.7754 65.0896 60.4018 62.4633L57.9827 60.0442Z" fill="black"/>
<path fill-rule="evenodd" clip-rule="evenodd" d="M55.7146 15.0111C55.7146 12.2436 57.9582 10 60.7258 10C63.4933 10 65.7369 12.2436 65.7369 15.0111V21.9496C65.7369 21.9565 65.7369 21.9634 65.7368 21.9703V38.5248C65.7368 44.0599 61.2497 48.547 55.7146 48.547H21.0222C15.4871 48.547 11 44.0599 11 38.5248V20.0222H11V15.0111C11 12.2436 13.2436 10 16.0112 10C18.7787 10 21.0223 12.2436 21.0223 15.0111V20.0222H55.7146V15.0111Z" fill="white"/>
<path d="M65.7368 21.9703L64.0263 21.9637V21.9703H65.7368ZM11 20.0222V18.3117H9.28947V20.0222H11ZM11 20.0222V21.7327H12.7106V20.0222H11ZM21.0223 20.0222H19.3118V21.7327H21.0223V20.0222ZM55.7146 20.0222V21.7327H57.4252V20.0222H55.7146ZM60.7258 8.28947C57.0135 8.28947 54.0041 11.2989 54.0041 15.0111H57.4252C57.4252 13.1883 58.9029 11.7105 60.7258 11.7105V8.28947ZM67.4474 15.0111C67.4474 11.2989 64.438 8.28947 60.7258 8.28947V11.7105C62.5486 11.7105 64.0264 13.1883 64.0264 15.0111H67.4474ZM67.4474 21.9496V15.0111H64.0264V21.9496H67.4474ZM67.4474 21.9769C67.4474 21.9682 67.4474 21.959 67.4474 21.9496H64.0264C64.0264 21.954 64.0263 21.9587 64.0263 21.9637L67.4474 21.9769ZM64.0263 21.9703V38.5248H67.4474V21.9703H64.0263ZM64.0263 38.5248C64.0263 43.1152 60.305 46.8365 55.7146 46.8365V50.2576C62.1944 50.2576 67.4474 45.0046 67.4474 38.5248H64.0263ZM55.7146 46.8365H21.0222V50.2576H55.7146V46.8365ZM21.0222 46.8365C16.4318 46.8365 12.7105 43.1152 12.7105 38.5248H9.28947C9.28947 45.0046 14.5424 50.2576 21.0222 50.2576V46.8365ZM12.7105 38.5248V20.0222H9.28947V38.5248H12.7105ZM11 21.7327H11V18.3117H11V21.7327ZM9.28951 15.0111V20.0222H12.7106V15.0111H9.28951ZM16.0112 8.28949C12.2989 8.28949 9.28951 11.2989 9.28951 15.0111H12.7106C12.7106 13.1883 14.1883 11.7105 16.0112 11.7105V8.28949ZM22.7328 15.0111C22.7328 11.2989 19.7234 8.28949 16.0112 8.28949V11.7105C17.834 11.7105 19.3118 13.1883 19.3118 15.0111H22.7328ZM22.7328 20.0222V15.0111H19.3118V20.0222H22.7328ZM21.0223 21.7327H55.7146V18.3117H21.0223V21.7327ZM54.0041 15.0111V20.0222H57.4252V15.0111H54.0041Z" fill="black"/>
<rect x="19.4805" y="25.297" width="8.11517" height="13.1872" rx="4.05759" fill="black"/>
<rect x="48.3701" y="25.297" width="8.11517" height="13.1872" rx="4.05759" fill="black"/>
</svg>
