<svg width="77" height="84" viewBox="0 0 77 84" fill="none" xmlns="http://www.w3.org/2000/svg">
<path fill-rule="evenodd" clip-rule="evenodd" d="M14.2057 45.872C15.9942 47.532 18.3896 48.547 21.0222 48.547H23.6223L18.1308 54.0385C17.4017 54.7676 16.9394 55.6625 16.7439 56.6018C16.4176 58.1694 16.8344 59.8608 17.9943 61.1121C18.0387 61.16 18.0842 61.2072 18.1308 61.2538C20.1232 63.2463 23.3537 63.2463 25.3461 61.2538L26.5443 60.0556V63.1173L26.5444 63.1507V68.1465C26.5444 68.896 26.6881 69.612 26.9494 70.2684C27.7932 72.388 29.8637 73.8862 32.2842 73.8862C32.5941 73.8862 32.8984 73.8617 33.195 73.8144C35.6286 73.4263 37.552 71.5087 37.9487 69.078C37.9646 68.9808 37.978 68.8828 37.9889 68.784H40.6098C40.6207 68.8828 40.6341 68.9808 40.65 69.078C41.0467 71.5087 42.9702 73.4263 45.4037 73.8144C45.7004 73.8617 46.0046 73.8862 46.3146 73.8862C48.5804 73.8862 50.5396 72.5733 51.4729 70.6667C51.8453 69.9059 52.0544 69.0506 52.0544 68.1465V63.1439L52.0544 63.1173V61.3297C54.0262 63.2209 57.1428 63.2209 59.1146 61.3297C59.1407 61.3047 59.1665 61.2794 59.1922 61.2537C60.4918 59.9541 60.9437 58.1277 60.5479 56.4618C60.3369 55.5737 59.885 54.7312 59.1922 54.0384L53.7008 48.547H55.7146C58.4962 48.547 61.0132 47.4137 62.8291 45.5837C64.6264 43.7723 65.7368 41.2782 65.7368 38.5247V21.9703L65.7368 21.9495V15.0111C65.7368 12.2435 63.4933 9.99995 60.7257 9.99995C57.9581 9.99995 55.7146 12.2435 55.7146 15.0111V20.0221H21.0222V15.0111C21.0222 12.2435 18.7787 9.99996 16.0111 9.99996C13.2435 9.99996 11 12.2435 11 15.0111L11 38.5247C11 41.4273 12.2339 44.0417 14.2057 45.872ZM29.1058 11.4721H47.631C49.1875 5.69871 54.4604 1.44995 60.7257 1.44995C68.2153 1.44995 74.2868 7.52147 74.2868 15.0111V21.9582L74.2868 21.9669L74.2868 21.9703V38.5247C74.2868 43.9962 71.9208 48.915 68.1561 52.3139C70.2621 57.2838 69.2893 63.2481 65.2379 67.2995C63.8251 68.7123 62.1799 69.7507 60.4253 70.4148C59.3385 77.2288 53.4347 82.4362 46.3146 82.4362C43.7641 82.4362 41.371 81.7689 39.2994 80.5992C37.2278 81.7689 34.8346 82.4362 32.2842 82.4362C25.3154 82.4362 19.5118 77.4478 18.2492 70.847C15.9909 70.2524 13.8554 69.0699 12.085 67.2996C8.13595 63.3505 7.11201 57.584 9.01316 52.6925C4.99806 49.2858 2.44995 44.2028 2.44995 38.5247L2.44999 15.0111C2.44999 7.52149 8.52151 1.44996 16.0111 1.44996C22.2764 1.44996 27.5493 5.69872 29.1058 11.4721Z" fill="#FFD25D"/>
<path fill-rule="evenodd" clip-rule="evenodd" d="M59.1925 61.2536C61.1849 59.2612 61.1849 56.0308 59.1925 54.0383L51.0752 45.921L48.6204 48.3758H28.703L26.2483 45.9211L18.1311 54.0384C16.1386 56.0309 16.1386 59.2613 18.1311 61.2537C20.1235 63.2462 23.354 63.2462 25.3464 61.2537L26.5446 60.0556V63.1173C26.5446 63.1284 26.5446 63.1395 26.5447 63.1507V68.1464C26.5447 71.3164 29.1145 73.8862 32.2845 73.8862C35.239 73.8862 37.6721 71.6539 37.9892 68.7839H40.6101C40.9272 71.6539 43.3604 73.8862 46.3149 73.8862C49.4849 73.8862 52.0546 71.3164 52.0546 68.1464V63.1438L52.0547 63.1173V61.3296C54.0526 63.2458 57.2257 63.2205 59.1925 61.2536Z" fill="white"/>
<path fill-rule="evenodd" clip-rule="evenodd" d="M51.075 43.502L60.4018 52.8287C63.0623 55.4892 63.0623 59.8027 60.4018 62.4632C58.6042 64.2608 56.0522 64.8438 53.765 64.2122V68.1464C53.765 72.2611 50.4294 75.5967 46.3147 75.5967C43.0816 75.5967 40.331 73.5383 39.2995 70.66C38.268 73.5383 35.5174 75.5967 32.2843 75.5967C28.1696 75.5967 24.834 72.2611 24.834 68.1464V63.7168C22.2748 65.0224 19.0627 64.6045 16.9214 62.4632C14.2609 59.8028 14.2609 55.4893 16.9214 52.8288L26.2482 43.502L29.4114 46.6652H47.9117L51.075 43.502ZM50.344 57.319L53.2386 60.0951C54.5661 61.3683 56.6755 61.3514 57.9828 60.0441C59.3072 58.7196 59.3072 56.5723 57.9828 55.2478L51.075 48.3401L49.3288 50.0863H27.9943L26.2482 48.3401L19.3404 55.2479C18.016 56.5724 18.016 58.7197 19.3404 60.0442C20.6649 61.3687 22.8123 61.3687 24.1367 60.0442L28.2549 55.926V63.1172L28.255 63.1408L28.2551 63.1506L28.255 68.1464C28.255 70.3717 30.059 72.1756 32.2843 72.1756C34.3572 72.1756 36.0665 70.6089 36.2889 68.596L36.4571 67.0733H42.1419L42.3101 68.596C42.5325 70.6089 44.2418 72.1756 46.3147 72.1756C48.54 72.1756 50.344 70.3717 50.344 68.1464V63.1438L50.344 63.1166V57.319Z" fill="black"/>
<path fill-rule="evenodd" clip-rule="evenodd" d="M55.7146 15.0111C55.7146 12.2436 57.9582 10 60.7258 10C63.4933 10 65.7369 12.2436 65.7369 15.0111V21.9496C65.7369 21.9565 65.7369 21.9634 65.7368 21.9703V38.5248C65.7368 44.0599 61.2497 48.547 55.7146 48.547H21.0222C15.4871 48.547 11 44.0599 11 38.5248V20.0222H11V15.0111C11 12.2436 13.2436 10 16.0112 10C18.7787 10 21.0223 12.2436 21.0223 15.0111V20.0222H55.7146V15.0111Z" fill="white"/>
<path fill-rule="evenodd" clip-rule="evenodd" d="M54.0042 15.0111C54.0042 11.2988 57.0136 8.28943 60.7258 8.28943C64.4381 8.28943 67.4475 11.2988 67.4475 15.0111V21.9496L67.4474 21.9703V38.5247C67.4474 45.0046 62.1945 50.2575 55.7147 50.2575H21.0223C14.5425 50.2575 9.28955 45.0046 9.28955 38.5247V18.3116L9.28959 15.0111C9.28959 11.2988 12.299 8.28944 16.0112 8.28944C19.7235 8.28944 22.7329 11.2988 22.7329 15.0111V18.3116H54.0042V15.0111ZM12.7106 21.7327V38.5247C12.7106 43.1152 16.4319 46.8365 21.0223 46.8365H55.7147C60.3051 46.8365 64.0264 43.1152 64.0264 38.5247V21.9703L64.0264 21.9496V15.0111C64.0264 13.1882 62.5487 11.7105 60.7258 11.7105C58.903 11.7105 57.4252 13.1882 57.4252 15.0111V21.7327H19.3118V15.0111C19.3118 13.1882 17.8341 11.7105 16.0112 11.7105C14.1884 11.7105 12.7106 13.1882 12.7106 15.0111L12.7106 21.7327Z" fill="black"/>
<rect x="19.4805" y="25.297" width="8.11517" height="13.1872" rx="4.05759" fill="black"/>
<rect x="48.3701" y="25.297" width="8.11517" height="13.1872" rx="4.05759" fill="black"/>
</svg>
