<svg width="77" height="84" viewBox="0 0 77 84" fill="none" xmlns="http://www.w3.org/2000/svg">
<path fill-rule="evenodd" clip-rule="evenodd" d="M59.1925 61.2536C61.1849 59.2612 61.1849 56.0308 59.1925 54.0383L51.0752 45.921L48.6204 48.3758H28.703L26.2483 45.9211L18.1311 54.0384C16.1386 56.0309 16.1386 59.2613 18.1311 61.2537C20.1235 63.2462 23.354 63.2462 25.3464 61.2537L26.5446 60.0556V63.1173C26.5446 63.1284 26.5446 63.1395 26.5447 63.1507V68.1464C26.5447 71.3164 29.1145 73.8862 32.2845 73.8862C35.239 73.8862 37.6721 71.6539 37.9892 68.7839H40.6101C40.9272 71.6539 43.3604 73.8862 46.3149 73.8862C49.4849 73.8862 52.0546 71.3164 52.0546 68.1464V63.1438L52.0547 63.1173V61.3296C54.0526 63.2458 57.2257 63.2205 59.1925 61.2536Z" fill="#FFD25D"/>
<path fill-rule="evenodd" clip-rule="evenodd" d="M51.075 43.502L60.4018 52.8287C63.0623 55.4892 63.0623 59.8027 60.4018 62.4632C58.6042 64.2608 56.0522 64.8438 53.765 64.2122V68.1464C53.765 72.2611 50.4294 75.5967 46.3147 75.5967C43.0816 75.5967 40.331 73.5383 39.2995 70.66C38.268 73.5383 35.5174 75.5967 32.2843 75.5967C28.1696 75.5967 24.834 72.2611 24.834 68.1464V63.7168C22.2748 65.0224 19.0627 64.6045 16.9214 62.4632C14.2609 59.8028 14.2609 55.4893 16.9214 52.8288L26.2482 43.502L29.4114 46.6652H47.9117L51.075 43.502ZM50.344 57.319L53.2386 60.0951C54.5661 61.3683 56.6755 61.3514 57.9828 60.0441C59.3072 58.7196 59.3072 56.5723 57.9828 55.2478L51.075 48.3401L49.3288 50.0863H27.9943L26.2482 48.3401L19.3404 55.2479C18.016 56.5724 18.016 58.7197 19.3404 60.0442C20.6649 61.3687 22.8123 61.3687 24.1367 60.0442L28.2549 55.926V63.1172L28.255 63.1408L28.2551 63.1506L28.255 68.1464C28.255 70.3717 30.059 72.1756 32.2843 72.1756C34.3572 72.1756 36.0665 70.6089 36.2889 68.596L36.4571 67.0733H42.1419L42.3101 68.596C42.5325 70.6089 44.2418 72.1756 46.3147 72.1756C48.54 72.1756 50.344 70.3717 50.344 68.1464V63.1438L50.344 63.1166V57.319Z" fill="black"/>
<path fill-rule="evenodd" clip-rule="evenodd" d="M55.7146 15.0111C55.7146 12.2436 57.9582 10 60.7258 10C63.4933 10 65.7369 12.2436 65.7369 15.0111V21.9496C65.7369 21.9565 65.7369 21.9634 65.7368 21.9703V38.5248C65.7368 44.0599 61.2497 48.547 55.7146 48.547H21.0222C15.4871 48.547 11 44.0599 11 38.5248V20.0222H11V15.0111C11 12.2436 13.2436 10 16.0112 10C18.7787 10 21.0223 12.2436 21.0223 15.0111V20.0222H55.7146V15.0111Z" fill="#FFD25D"/>
<path fill-rule="evenodd" clip-rule="evenodd" d="M54.0042 15.0111C54.0042 11.2988 57.0136 8.28943 60.7258 8.28943C64.4381 8.28943 67.4475 11.2988 67.4475 15.0111V21.9496L67.4474 21.9703V38.5247C67.4474 45.0046 62.1945 50.2575 55.7147 50.2575H21.0223C14.5425 50.2575 9.28955 45.0046 9.28955 38.5247V18.3116L9.28959 15.0111C9.28959 11.2988 12.299 8.28944 16.0112 8.28944C19.7235 8.28944 22.7329 11.2988 22.7329 15.0111V18.3116H54.0042V15.0111ZM12.7106 21.7327V38.5247C12.7106 43.1152 16.4319 46.8365 21.0223 46.8365H55.7147C60.3051 46.8365 64.0264 43.1152 64.0264 38.5247V21.9703L64.0264 21.9496V15.0111C64.0264 13.1882 62.5487 11.7105 60.7258 11.7105C58.903 11.7105 57.4252 13.1882 57.4252 15.0111V21.7327H19.3118V15.0111C19.3118 13.1882 17.8341 11.7105 16.0112 11.7105C14.1884 11.7105 12.7106 13.1882 12.7106 15.0111L12.7106 21.7327Z" fill="black"/>
<path d="M19.4805 29.3546C19.4805 27.1136 21.2971 25.297 23.5381 25.297C25.779 25.297 27.5956 27.1136 27.5956 29.3546V34.4266C27.5956 36.6675 25.779 38.4842 23.5381 38.4842C21.2971 38.4842 19.4805 36.6675 19.4805 34.4266V29.3546Z" fill="black"/>
<path d="M48.3702 29.3546C48.3702 27.1136 50.1869 25.297 52.4278 25.297C54.6688 25.297 56.4854 27.1136 56.4854 29.3546V34.4266C56.4854 36.6675 54.6688 38.4842 52.4278 38.4842C50.1869 38.4842 48.3702 36.6675 48.3702 34.4266V29.3546Z" fill="black"/>
</svg>
