<svg width="77" height="84" viewBox="0 0 77 84" fill="none" xmlns="http://www.w3.org/2000/svg">
<mask id="path-1-outside-1" maskUnits="userSpaceOnUse" x="10" y="7" width="55" height="70" fill="black">
<rect fill="white" x="10" y="7" width="55" height="70"/>
<path fill-rule="evenodd" clip-rule="evenodd" d="M27.7424 11C20.1527 11 14 17.1527 14 24.7424C14 31.4975 18.8737 37.1141 25.2966 38.2679V41.2347C25.2966 43.2531 26.9329 44.8894 28.9514 44.8894C30.9511 44.8894 32.5757 43.2834 32.6057 41.2908C33.0384 41.461 33.4819 41.6097 33.9349 41.7356V43.2281C33.9349 45.2465 35.5712 46.8828 37.5896 46.8828C39.6081 46.8828 41.2443 45.2465 41.2443 43.2281V41.7355C41.6976 41.6096 42.1414 41.4608 42.5744 41.2905C42.6042 43.2832 44.2289 44.8894 46.2287 44.8894C48.2471 44.8894 49.8834 43.2531 49.8834 41.2347V38.2844C56.3527 37.1688 61.274 31.5304 61.274 24.7424C61.274 17.1527 55.1213 11 47.5316 11H27.7424ZM37.5896 48.2119C36.1694 48.2119 34.9383 49.022 34.3334 50.2053H32.6059C31.5049 50.2053 30.6124 51.0978 30.6124 52.1988C30.6124 53.2998 31.5049 54.1923 32.6059 54.1923H33.9349V55.8536C33.9349 55.9655 33.9399 56.0763 33.9498 56.1857H32.6059C31.5049 56.1857 30.6124 57.0782 30.6124 58.1792C30.6124 59.2802 31.5049 60.1727 32.6059 60.1727H42.5733C43.6743 60.1727 44.5668 59.2802 44.5668 58.1792C44.5668 57.0782 43.6743 56.1857 42.5733 56.1857H41.2295C41.2393 56.0763 41.2443 55.9655 41.2443 55.8536V54.1923H42.5733C43.6743 54.1923 44.5668 53.2998 44.5668 52.1988C44.5668 51.0978 43.6743 50.2053 42.5733 50.2053H40.8458C40.2409 49.022 39.0099 48.2119 37.5896 48.2119ZM29.948 64.492C29.948 63.2075 30.9892 62.1663 32.2737 62.1663H32.606H41.909H42.2412C43.5256 62.1663 44.5669 63.2075 44.5669 64.492C44.5669 64.5457 44.5651 64.5989 44.5615 64.6516C44.5652 64.7087 44.567 64.7663 44.567 64.8243V70.1402C44.567 71.6082 43.377 72.7982 41.909 72.7982C40.4411 72.7982 39.251 71.6082 39.251 70.1402V66.8177H35.2639V70.1402C35.2639 71.6082 34.0739 72.7982 32.606 72.7982C31.138 72.7982 29.948 71.6082 29.948 70.1402V64.8243C29.948 64.7666 29.9498 64.7093 29.9534 64.6526C29.9498 64.5995 29.948 64.546 29.948 64.492ZM46.4463 48.4866C45.4083 49.5246 45.4083 51.2076 46.4463 52.2456L50.6751 56.4744C51.7131 57.5124 53.3961 57.5124 54.4341 56.4744C55.4721 55.4364 55.4721 53.7535 54.4341 52.7155L50.2052 48.4866C49.1672 47.4486 47.4843 47.4486 46.4463 48.4866ZM24.9544 48.7622C25.9924 47.7242 27.6753 47.7242 28.7133 48.7622C29.7513 49.8002 29.7513 51.4832 28.7133 52.5212L24.4845 56.75C23.4465 57.788 21.7636 57.788 20.7255 56.75C19.6875 55.712 19.6875 54.029 20.7255 52.991L24.9544 48.7622Z"/>
</mask>
<path fill-rule="evenodd" clip-rule="evenodd" d="M27.7424 11C20.1527 11 14 17.1527 14 24.7424C14 31.4975 18.8737 37.1141 25.2966 38.2679V41.2347C25.2966 43.2531 26.9329 44.8894 28.9514 44.8894C30.9511 44.8894 32.5757 43.2834 32.6057 41.2908C33.0384 41.461 33.4819 41.6097 33.9349 41.7356V43.2281C33.9349 45.2465 35.5712 46.8828 37.5896 46.8828C39.6081 46.8828 41.2443 45.2465 41.2443 43.2281V41.7355C41.6976 41.6096 42.1414 41.4608 42.5744 41.2905C42.6042 43.2832 44.2289 44.8894 46.2287 44.8894C48.2471 44.8894 49.8834 43.2531 49.8834 41.2347V38.2844C56.3527 37.1688 61.274 31.5304 61.274 24.7424C61.274 17.1527 55.1213 11 47.5316 11H27.7424ZM37.5896 48.2119C36.1694 48.2119 34.9383 49.022 34.3334 50.2053H32.6059C31.5049 50.2053 30.6124 51.0978 30.6124 52.1988C30.6124 53.2998 31.5049 54.1923 32.6059 54.1923H33.9349V55.8536C33.9349 55.9655 33.9399 56.0763 33.9498 56.1857H32.6059C31.5049 56.1857 30.6124 57.0782 30.6124 58.1792C30.6124 59.2802 31.5049 60.1727 32.6059 60.1727H42.5733C43.6743 60.1727 44.5668 59.2802 44.5668 58.1792C44.5668 57.0782 43.6743 56.1857 42.5733 56.1857H41.2295C41.2393 56.0763 41.2443 55.9655 41.2443 55.8536V54.1923H42.5733C43.6743 54.1923 44.5668 53.2998 44.5668 52.1988C44.5668 51.0978 43.6743 50.2053 42.5733 50.2053H40.8458C40.2409 49.022 39.0099 48.2119 37.5896 48.2119ZM29.948 64.492C29.948 63.2075 30.9892 62.1663 32.2737 62.1663H32.606H41.909H42.2412C43.5256 62.1663 44.5669 63.2075 44.5669 64.492C44.5669 64.5457 44.5651 64.5989 44.5615 64.6516C44.5652 64.7087 44.567 64.7663 44.567 64.8243V70.1402C44.567 71.6082 43.377 72.7982 41.909 72.7982C40.4411 72.7982 39.251 71.6082 39.251 70.1402V66.8177H35.2639V70.1402C35.2639 71.6082 34.0739 72.7982 32.606 72.7982C31.138 72.7982 29.948 71.6082 29.948 70.1402V64.8243C29.948 64.7666 29.9498 64.7093 29.9534 64.6526C29.9498 64.5995 29.948 64.546 29.948 64.492ZM46.4463 48.4866C45.4083 49.5246 45.4083 51.2076 46.4463 52.2456L50.6751 56.4744C51.7131 57.5124 53.3961 57.5124 54.4341 56.4744C55.4721 55.4364 55.4721 53.7535 54.4341 52.7155L50.2052 48.4866C49.1672 47.4486 47.4843 47.4486 46.4463 48.4866ZM24.9544 48.7622C25.9924 47.7242 27.6753 47.7242 28.7133 48.7622C29.7513 49.8002 29.7513 51.4832 28.7133 52.5212L24.4845 56.75C23.4465 57.788 21.7636 57.788 20.7255 56.75C19.6875 55.712 19.6875 54.029 20.7255 52.991L24.9544 48.7622Z" fill="#FFD25D"/>
<path d="M25.2966 38.2679H28.7177V35.4066L25.9015 34.9007L25.2966 38.2679ZM32.6057 41.2908L33.8578 38.1072L29.2594 36.2986L29.185 41.2393L32.6057 41.2908ZM33.9349 41.7356H37.3559V39.1354L34.8506 38.4393L33.9349 41.7356ZM41.2443 41.7355L40.3285 38.4393L37.8233 39.1354V41.7355H41.2443ZM42.5744 41.2905L45.995 41.2393L45.9211 36.2976L41.322 38.1069L42.5744 41.2905ZM49.8834 38.2844L49.302 34.9131L46.4624 35.4028V38.2844H49.8834ZM34.3334 50.2053V53.6264H36.4267L37.3795 51.7625L34.3334 50.2053ZM33.9349 54.1923H37.3559V50.7713H33.9349V54.1923ZM33.9498 56.1857V59.6067H37.6928L37.357 55.8788L33.9498 56.1857ZM41.2295 56.1857L37.8222 55.8788L37.4864 59.6067H41.2295V56.1857ZM41.2443 54.1923V50.7713H37.8233V54.1923H41.2443ZM40.8458 50.2053L37.7997 51.7625L38.7525 53.6264H40.8458V50.2053ZM44.5615 64.6516L41.1483 64.4202L41.133 64.6454L41.1475 64.8705L44.5615 64.6516ZM39.251 66.8177H42.6721V63.3967H39.251V66.8177ZM35.2639 66.8177V63.3967H31.8429V66.8177H35.2639ZM29.9534 64.6526L33.3675 64.8703L33.3819 64.645L33.3665 64.4199L29.9534 64.6526ZM46.4463 52.2456L44.0272 54.6646L44.0272 54.6646L46.4463 52.2456ZM46.4463 48.4866L44.0272 46.0676L44.0272 46.0676L46.4463 48.4866ZM50.6751 56.4744L48.256 58.8935L48.2561 58.8935L50.6751 56.4744ZM28.7133 48.7622L26.2943 51.1813L26.2943 51.1813L28.7133 48.7622ZM24.9544 48.7622L27.3734 51.1813L27.3734 51.1813L24.9544 48.7622ZM28.7133 52.5212L31.1324 54.9402L31.1324 54.9402L28.7133 52.5212ZM24.4845 56.75L26.9036 59.1691L26.9036 59.169L24.4845 56.75ZM20.7255 56.75L18.3065 59.169L18.3065 59.169L20.7255 56.75ZM20.7255 52.991L23.1446 55.4101L23.1446 55.4101L20.7255 52.991ZM17.4211 24.7424C17.4211 19.0421 22.0421 14.4211 27.7424 14.4211V7.57895C18.2633 7.57895 10.5789 15.2633 10.5789 24.7424H17.4211ZM25.9015 34.9007C21.0798 34.0346 17.4211 29.8123 17.4211 24.7424H10.5789C10.5789 33.1826 16.6677 40.1937 24.6918 41.6351L25.9015 34.9007ZM28.7177 41.2347V38.2679H21.8756V41.2347H28.7177ZM28.9514 41.4684C28.8223 41.4684 28.7177 41.3637 28.7177 41.2347H21.8756C21.8756 45.1425 25.0435 48.3105 28.9514 48.3105V41.4684ZM29.185 41.2393C29.1831 41.3656 29.0789 41.4684 28.9514 41.4684V48.3105C32.8232 48.3105 35.9682 45.2012 36.0263 41.3424L29.185 41.2393ZM31.3535 44.4745C31.8957 44.6877 32.4514 44.874 33.0191 45.0318L34.8506 38.4393C34.5123 38.3454 34.1811 38.2343 33.8578 38.1072L31.3535 44.4745ZM37.3559 43.2281V41.7356H30.5138V43.2281H37.3559ZM37.5896 43.4618C37.4606 43.4618 37.3559 43.3571 37.3559 43.2281H30.5138C30.5138 47.1359 33.6818 50.3039 37.5896 50.3039V43.4618ZM37.8233 43.2281C37.8233 43.3571 37.7187 43.4618 37.5896 43.4618V50.3039C41.4975 50.3039 44.6654 47.1359 44.6654 43.2281H37.8233ZM37.8233 41.7355V43.2281H44.6654V41.7355H37.8233ZM42.1602 45.0317C42.7282 44.8739 43.2843 44.6874 43.8268 44.474L41.322 38.1069C40.9985 38.2341 40.6671 38.3453 40.3285 38.4393L42.1602 45.0317ZM46.2287 41.4684C46.1011 41.4684 45.9969 41.3656 45.995 41.2393L39.1537 41.3416C39.2114 45.2008 42.3566 48.3105 46.2287 48.3105V41.4684ZM46.4624 41.2347C46.4624 41.3637 46.3577 41.4684 46.2287 41.4684V48.3105C50.1365 48.3105 53.3045 45.1425 53.3045 41.2347H46.4624ZM46.4624 38.2844V41.2347H53.3045V38.2844H46.4624ZM57.853 24.7424C57.853 29.8371 54.1584 34.0757 49.302 34.9131L50.4648 41.6557C58.547 40.262 64.6951 33.2236 64.6951 24.7424H57.853ZM47.5316 14.4211C53.2319 14.4211 57.853 19.0421 57.853 24.7424H64.6951C64.6951 15.2633 57.0107 7.57895 47.5316 7.57895V14.4211ZM27.7424 14.4211H47.5316V7.57895H27.7424V14.4211ZM37.3795 51.7625C37.3987 51.7249 37.4303 51.69 37.4685 51.6662C37.5016 51.6455 37.5389 51.6329 37.5896 51.6329V44.7908C34.835 44.7908 32.4542 46.3656 31.2873 48.6481L37.3795 51.7625ZM32.6059 53.6264H34.3334V46.7843H32.6059V53.6264ZM34.0334 52.1988C34.0334 52.9872 33.3943 53.6264 32.6059 53.6264V46.7843C29.6155 46.7843 27.1913 49.2085 27.1913 52.1988H34.0334ZM32.6059 50.7713C33.3943 50.7713 34.0334 51.4104 34.0334 52.1988H27.1913C27.1913 55.1892 29.6155 57.6134 32.6059 57.6134V50.7713ZM33.9349 50.7713H32.6059V57.6134H33.9349V50.7713ZM37.3559 55.8536V54.1923H30.5138V55.8536H37.3559ZM37.357 55.8788C37.3563 55.8713 37.3559 55.8629 37.3559 55.8536H30.5138C30.5138 56.0681 30.5235 56.2813 30.5425 56.4926L37.357 55.8788ZM32.6059 59.6067H33.9498V52.7646H32.6059V59.6067ZM34.0334 58.1792C34.0334 58.9676 33.3943 59.6067 32.6059 59.6067V52.7646C29.6155 52.7646 27.1913 55.1888 27.1913 58.1792H34.0334ZM32.6059 56.7516C33.3943 56.7516 34.0334 57.3908 34.0334 58.1792H27.1913C27.1913 61.1696 29.6155 63.5937 32.6059 63.5937V56.7516ZM42.5733 56.7516H32.6059V63.5937H42.5733V56.7516ZM41.1458 58.1792C41.1458 57.3908 41.7849 56.7516 42.5733 56.7516V63.5937C45.5637 63.5937 47.9879 61.1696 47.9879 58.1792H41.1458ZM42.5733 59.6067C41.7849 59.6067 41.1458 58.9676 41.1458 58.1792H47.9879C47.9879 55.1888 45.5637 52.7646 42.5733 52.7646V59.6067ZM41.2295 59.6067H42.5733V52.7646H41.2295V59.6067ZM37.8233 55.8536C37.8233 55.8629 37.8229 55.8713 37.8222 55.8788L44.6367 56.4926C44.6557 56.2813 44.6654 56.0681 44.6654 55.8536H37.8233ZM37.8233 54.1923V55.8536H44.6654V54.1923H37.8233ZM42.5733 50.7713H41.2443V57.6134H42.5733V50.7713ZM41.1458 52.1988C41.1458 51.4104 41.7849 50.7713 42.5733 50.7713V57.6134C45.5637 57.6134 47.9879 55.1892 47.9879 52.1988H41.1458ZM42.5733 53.6264C41.7849 53.6264 41.1458 52.9872 41.1458 52.1988H47.9879C47.9879 49.2084 45.5637 46.7843 42.5733 46.7843V53.6264ZM40.8458 53.6264H42.5733V46.7843H40.8458V53.6264ZM37.5896 51.6329C37.6403 51.6329 37.6776 51.6455 37.7107 51.6662C37.749 51.69 37.7805 51.7249 37.7997 51.7625L43.8919 48.6481C42.7251 46.3656 40.3442 44.7908 37.5896 44.7908V51.6329ZM32.2737 58.7452C29.0998 58.7452 26.5269 61.3181 26.5269 64.492H33.369C33.369 65.0969 32.8786 65.5873 32.2737 65.5873V58.7452ZM32.606 58.7452H32.2737V65.5873H32.606V58.7452ZM41.909 58.7452H32.606V65.5873H41.909V58.7452ZM42.2412 58.7452H41.909V65.5873H42.2412V58.7452ZM47.9879 64.492C47.9879 61.3181 45.415 58.7452 42.2412 58.7452V65.5873C41.6362 65.5873 41.1458 65.0969 41.1458 64.492H47.9879ZM47.9747 64.8831C47.9835 64.7533 47.9879 64.6229 47.9879 64.492H41.1458C41.1458 64.4685 41.1466 64.4445 41.1483 64.4202L47.9747 64.8831ZM47.9881 64.8243C47.9881 64.6933 47.9839 64.5627 47.9755 64.4328L41.1475 64.8705C41.1464 64.8547 41.146 64.8393 41.146 64.8243H47.9881ZM47.9881 70.1402V64.8243H41.146V70.1402H47.9881ZM41.909 76.2193C45.2664 76.2193 47.9881 73.4976 47.9881 70.1402H41.146C41.146 69.7188 41.4876 69.3772 41.909 69.3772V76.2193ZM35.83 70.1402C35.83 73.4976 38.5517 76.2193 41.909 76.2193V69.3772C42.3305 69.3772 42.6721 69.7188 42.6721 70.1402H35.83ZM35.83 66.8177V70.1402H42.6721V66.8177H35.83ZM35.2639 70.2388H39.251V63.3967H35.2639V70.2388ZM38.685 70.1402V66.8177H31.8429V70.1402H38.685ZM32.606 76.2193C35.9633 76.2193 38.685 73.4976 38.685 70.1402H31.8429C31.8429 69.7188 32.1845 69.3772 32.606 69.3772V76.2193ZM26.5269 70.1402C26.5269 73.4976 29.2486 76.2193 32.606 76.2193V69.3772C33.0274 69.3772 33.369 69.7188 33.369 70.1402H26.5269ZM26.5269 64.8243V70.1402H33.369V64.8243H26.5269ZM26.5393 64.4349C26.5311 64.5641 26.5269 64.6939 26.5269 64.8243H33.369C33.369 64.8392 33.3685 64.8546 33.3675 64.8703L26.5393 64.4349ZM26.5269 64.492C26.5269 64.6237 26.5314 64.7549 26.5403 64.8853L33.3665 64.4199C33.3682 64.4442 33.369 64.4683 33.369 64.492H26.5269ZM48.8653 49.8265C49.1633 50.1245 49.1633 50.6077 48.8653 50.9057L44.0272 46.0676C41.6532 48.4416 41.6532 52.2906 44.0272 54.6646L48.8653 49.8265ZM53.0941 54.0554L48.8653 49.8265L44.0272 54.6646L48.256 58.8935L53.0941 54.0554ZM52.015 54.0554C52.313 53.7574 52.7962 53.7574 53.0941 54.0554L48.2561 58.8935C50.6301 61.2675 54.4791 61.2675 56.8531 58.8935L52.015 54.0554ZM52.015 55.1345C51.717 54.8365 51.717 54.3534 52.015 54.0554L56.8531 58.8935C59.2271 56.5195 59.2271 52.6704 56.8531 50.2964L52.015 55.1345ZM47.7862 50.9057L52.015 55.1345L56.8531 50.2964L52.6243 46.0676L47.7862 50.9057ZM48.8653 50.9057C48.5673 51.2037 48.0842 51.2037 47.7862 50.9057L52.6243 46.0676C50.2503 43.6936 46.4012 43.6936 44.0272 46.0676L48.8653 50.9057ZM31.1324 46.3432C28.7584 43.9691 24.9093 43.9691 22.5353 46.3432L27.3734 51.1813C27.0754 51.4793 26.5923 51.4793 26.2943 51.1813L31.1324 46.3432ZM31.1324 54.9402C33.5064 52.5662 33.5064 48.7172 31.1324 46.3432L26.2943 51.1813C25.9963 50.8833 25.9963 50.4001 26.2943 50.1021L31.1324 54.9402ZM26.9036 59.169L31.1324 54.9402L26.2943 50.1021L22.0655 54.331L26.9036 59.169ZM18.3065 59.169C20.6805 61.5431 24.5295 61.5431 26.9036 59.1691L22.0655 54.3309C22.3634 54.033 22.8466 54.0329 23.1446 54.331L18.3065 59.169ZM18.3065 50.572C15.9325 52.946 15.9325 56.795 18.3065 59.169L23.1446 54.331C23.4426 54.6289 23.4426 55.1121 23.1446 55.4101L18.3065 50.572ZM22.5353 46.3432L18.3065 50.572L23.1446 55.4101L27.3734 51.1813L22.5353 46.3432Z" fill="black" mask="url(#path-1-outside-1)"/>
<path d="M43.9247 25.126C43.9247 21.9429 46.41 19.3625 49.4757 19.3625C52.5414 19.3625 55.0267 21.9429 55.0267 25.126V26.2787C55.0267 29.4618 52.5414 32.0422 49.4757 32.0422C46.41 32.0422 43.9247 29.4618 43.9247 26.2787V25.126Z" fill="black"/>
<path d="M26.1616 19.3625C23.0959 19.3625 20.6106 21.9429 20.6106 25.126V26.2787C20.6106 29.4618 23.0959 32.0422 26.1616 32.0422C29.2273 32.0422 31.7126 29.4618 31.7126 26.2787V25.126C31.7126 21.9429 29.2273 19.3625 26.1616 19.3625Z" fill="black"/>
<path d="M37.8194 29.3251L32.3853 34.7592H43.2535L37.8194 29.3251Z" fill="black"/>
</svg>
