<svg width="77" height="84" viewBox="0 0 77 84" fill="none" xmlns="http://www.w3.org/2000/svg">
<path fill-rule="evenodd" clip-rule="evenodd" d="M28.7424 11C21.1527 11 15 17.1527 15 24.7424C15 31.4975 19.8737 37.1141 26.2966 38.2679V41.2347C26.2966 43.2531 27.9329 44.8894 29.9514 44.8894C31.9511 44.8894 33.5757 43.2834 33.6057 41.2908C34.0384 41.461 34.4819 41.6097 34.9349 41.7356V43.2281C34.9349 45.2465 36.5712 46.8828 38.5896 46.8828C40.6081 46.8828 42.2443 45.2465 42.2443 43.2281V41.7355C42.6976 41.6096 43.1414 41.4608 43.5744 41.2905C43.6042 43.2832 45.2289 44.8894 47.2287 44.8894C49.2471 44.8894 50.8834 43.2531 50.8834 41.2347V38.2844C57.3527 37.1688 62.274 31.5304 62.274 24.7424C62.274 17.1527 56.1213 11 48.5316 11H28.7424ZM38.5896 48.2119C37.1694 48.2119 35.9383 49.022 35.3334 50.2053H33.6059C32.5049 50.2053 31.6124 51.0978 31.6124 52.1988C31.6124 53.2998 32.5049 54.1923 33.6059 54.1923H34.9349V55.8536C34.9349 55.9655 34.9399 56.0763 34.9498 56.1857H33.6059C32.5049 56.1857 31.6124 57.0782 31.6124 58.1792C31.6124 59.2802 32.5049 60.1727 33.6059 60.1727H43.5733C44.6743 60.1727 45.5668 59.2802 45.5668 58.1792C45.5668 57.0782 44.6743 56.1857 43.5733 56.1857H42.2295C42.2393 56.0763 42.2443 55.9655 42.2443 55.8536V54.1923H43.5733C44.6743 54.1923 45.5668 53.2998 45.5668 52.1988C45.5668 51.0978 44.6743 50.2053 43.5733 50.2053H41.8458C41.2409 49.022 40.0099 48.2119 38.5896 48.2119ZM30.948 64.492C30.948 63.2075 31.9892 62.1663 33.2737 62.1663H33.606H42.909H43.2412C44.5256 62.1663 45.5669 63.2075 45.5669 64.492C45.5669 64.5457 45.5651 64.5989 45.5615 64.6516C45.5652 64.7087 45.567 64.7663 45.567 64.8243V70.1402C45.567 71.6082 44.377 72.7982 42.909 72.7982C41.4411 72.7982 40.251 71.6082 40.251 70.1402V66.8177H36.2639V70.1402C36.2639 71.6082 35.0739 72.7982 33.606 72.7982C32.138 72.7982 30.948 71.6082 30.948 70.1402V64.8243C30.948 64.7666 30.9498 64.7093 30.9534 64.6526C30.9498 64.5995 30.948 64.546 30.948 64.492ZM47.4463 48.4866C46.4083 49.5246 46.4083 51.2076 47.4463 52.2456L51.6751 56.4744C52.7131 57.5124 54.3961 57.5124 55.4341 56.4744C56.4721 55.4364 56.4721 53.7535 55.4341 52.7155L51.2052 48.4866C50.1672 47.4486 48.4843 47.4486 47.4463 48.4866ZM25.9544 48.7622C26.9924 47.7242 28.6753 47.7242 29.7133 48.7622C30.7513 49.8002 30.7513 51.4832 29.7133 52.5212L25.4845 56.75C24.4465 57.788 22.7636 57.788 21.7255 56.75C20.6875 55.712 20.6875 54.029 21.7255 52.991L25.9544 48.7622Z" fill="white"/>
<path fill-rule="evenodd" clip-rule="evenodd" d="M26.2965 38.2679C26.2257 38.2552 26.1551 38.2419 26.0846 38.2281C25.7525 38.163 25.4247 38.086 25.1016 37.9975C19.2787 36.4018 14.9999 31.0718 14.9999 24.7425C14.9999 17.1527 21.1526 11 28.7423 11H48.5315C56.1212 11 62.2739 17.1527 62.2739 24.7425C62.2739 31.1055 57.9493 36.4586 52.079 38.0227C51.7596 38.1078 51.4356 38.1817 51.1075 38.2439C51.033 38.258 50.9582 38.2715 50.8833 38.2845V41.2347C50.8833 41.5073 50.8535 41.7729 50.7969 42.0285C50.7008 42.4624 50.5275 42.8673 50.2923 43.2281C50.1714 43.4135 50.0341 43.5873 49.8825 43.7474C49.4907 44.1611 49.0032 44.4832 48.4555 44.6784C48.072 44.815 47.659 44.8894 47.2286 44.8894C46.1523 44.8894 45.1846 44.4242 44.5158 43.6838C44.3873 43.5416 44.2699 43.3892 44.1648 43.2281C43.8774 42.7873 43.6826 42.2805 43.6079 41.7355C43.6041 41.708 43.6007 41.6804 43.5975 41.6527C43.5839 41.5336 43.5761 41.4128 43.5743 41.2905C43.5454 41.3018 43.5164 41.3131 43.4874 41.3243C43.3769 41.3669 43.2657 41.4081 43.1538 41.4479C42.9481 41.521 42.7402 41.5893 42.5301 41.6527C42.4352 41.6813 42.34 41.7089 42.2442 41.7355V43.2281C42.2442 43.2469 42.2441 43.2656 42.2438 43.2843C42.2351 43.8617 42.0925 44.4066 41.8457 44.8894C41.7084 45.158 41.5389 45.4073 41.3422 45.6323C41.34 45.6348 41.3379 45.6372 41.3357 45.6397C40.6819 46.3836 39.7306 46.8597 38.6677 46.882C38.6417 46.8826 38.6156 46.8828 38.5895 46.8828C38.5247 46.8828 38.4604 46.8811 38.3964 46.8778C37.38 46.8249 36.4735 46.3567 35.8433 45.6397C35.8417 45.6378 35.84 45.6359 35.8384 45.634C35.641 45.4086 35.4709 45.1586 35.3333 44.8894C35.1216 44.4752 34.9866 44.0154 34.9469 43.5285C34.9389 43.4294 34.9348 43.3293 34.9348 43.2281V41.7356C34.9347 41.7356 34.9348 41.7356 34.9348 41.7356C34.8391 41.709 34.7436 41.6813 34.6488 41.6527C34.5834 41.633 34.5183 41.6128 34.4533 41.5921C34.3095 41.5464 34.1668 41.4983 34.0252 41.4479C33.9133 41.4081 33.8021 41.3669 33.6916 41.3244C33.6629 41.3133 33.6342 41.3021 33.6056 41.2909C33.6037 41.413 33.5959 41.5338 33.5823 41.6527C33.5792 41.6804 33.5757 41.7081 33.572 41.7356C33.4973 42.2806 33.3024 42.7873 33.015 43.2281C32.9101 43.389 32.7929 43.5411 32.6647 43.6831C31.9958 44.4239 31.0279 44.8894 29.9513 44.8894C29.5206 44.8894 29.1074 44.8149 28.7237 44.6782C28.1761 44.4829 27.6887 44.1607 27.297 43.747C27.1455 43.5871 27.0083 43.4134 26.8875 43.2281C26.6516 42.8663 26.4781 42.46 26.3821 42.0247C26.3261 41.7703 26.2965 41.5059 26.2965 41.2347V38.2679ZM18.1482 44.362C11.1799 40.5927 6.44727 33.2256 6.44727 24.7425C6.44727 12.4292 16.4291 2.44739 28.7423 2.44739H48.5315C60.8447 2.44739 70.8266 12.4292 70.8266 24.7425C70.8266 33.2121 66.1088 40.5698 59.1582 44.3444L61.4816 46.6679C65.8596 51.0459 65.8596 58.144 61.4816 62.5221C59.4363 64.5673 56.7974 65.6571 54.1195 65.7914V70.1403C54.1195 76.3317 49.1004 81.3509 42.9089 81.3509C41.2495 81.3509 39.6743 80.9903 38.2574 80.3433C36.8405 80.9903 35.2653 81.3509 33.6059 81.3509C27.4144 81.3509 22.3952 76.3317 22.3952 70.1403V66.0161C19.9416 65.7513 17.5587 64.6785 15.6778 62.7976L21.7254 56.75C22.1109 57.1355 22.5853 57.3778 23.0827 57.477C23.5287 57.5659 23.9932 57.5397 24.4284 57.3983C24.8145 57.2729 25.1776 57.0568 25.4844 56.75L29.7132 52.5212C29.7998 52.4346 29.8791 52.3436 29.9513 52.2488C29.9639 52.2323 29.9762 52.2156 29.9884 52.1988C30.0325 52.1379 30.0738 52.0755 30.1121 52.0118C30.6672 51.0905 30.6136 49.905 29.9513 49.0346C29.8791 48.9398 29.7998 48.8488 29.7132 48.7622C29.6172 48.6662 29.5157 48.5791 29.4097 48.5009C28.8093 48.0577 28.0646 47.8994 27.3611 48.0258C26.8458 48.1185 26.3525 48.364 25.9543 48.7622L23.0741 51.6424C23.0794 51.5398 23.0862 51.4376 23.0944 51.3358C22.6926 51.0625 22.3079 50.7658 21.9423 50.4477C21.9198 51.1344 22.0167 51.8243 22.2329 52.4836L21.7254 52.9911C20.6874 54.0291 20.6874 55.712 21.7254 56.75L15.6778 62.7976C11.2998 58.4196 11.2998 51.3215 15.6778 46.9434M18.1717 44.4496L15.6778 46.9434ZM18.1482 44.362C18.1559 44.3912 18.1637 44.4204 18.1717 44.4496ZM31.9321 53.2822C32.0224 53.4215 32.1296 53.5487 32.2509 53.6611C32.2527 53.6628 32.2546 53.6646 32.2565 53.6663C32.4851 53.8766 32.7629 54.0342 33.0708 54.1197C33.1371 54.1381 33.2047 54.1532 33.2736 54.1648C33.3816 54.1829 33.4926 54.1923 33.6058 54.1923H34.9348V55.8536C34.9348 55.9656 34.9398 56.0763 34.9497 56.1857H33.6059C33.5327 56.1857 33.4605 56.1897 33.3894 56.1973C33.3504 56.2015 33.3118 56.2069 33.2736 56.2133C33.0838 56.2451 32.9032 56.3037 32.7356 56.3852C32.0706 56.7083 31.6123 57.3902 31.6123 58.1792C31.6123 58.208 31.6129 58.2366 31.6141 58.2651C31.6543 59.2142 32.3582 59.9916 33.2736 60.1451C33.2775 60.1458 33.2814 60.1464 33.2853 60.1471C33.3896 60.1639 33.4967 60.1727 33.6058 60.1727H43.5732C43.6823 60.1727 43.7894 60.1639 43.8938 60.1471C44.8148 59.9982 45.5245 59.2183 45.5649 58.2651C45.5661 58.2366 45.5667 58.208 45.5667 58.1792C45.5667 57.3902 45.1083 56.7083 44.4434 56.3852C44.1804 56.2574 43.8852 56.1857 43.5732 56.1857H42.2294C42.2392 56.0763 42.2442 55.9656 42.2442 55.8536V54.1923H43.5732C43.7586 54.1923 43.938 54.167 44.1083 54.1197C44.3834 54.0432 44.6345 53.9093 44.848 53.7315C44.8734 53.7104 44.8982 53.6887 44.9225 53.6663C45.0461 53.5526 45.1553 53.4235 45.247 53.2821C45.4493 52.9702 45.5667 52.5982 45.5667 52.1988C45.5667 51.0979 44.6742 50.2053 43.5732 50.2053H41.8457C41.4244 49.3812 40.6994 48.7381 39.8182 48.4236C39.5032 48.3111 39.1682 48.2407 38.82 48.219C38.8068 48.2182 38.7936 48.2175 38.7804 48.2168C38.7172 48.2135 38.6535 48.2119 38.5895 48.2119C38.5121 48.2119 38.4352 48.2143 38.359 48.219C38.3463 48.2198 38.3336 48.2207 38.3209 48.2216C37.9866 48.2459 37.6648 48.3151 37.3614 48.4233C36.48 48.7377 35.7547 49.381 35.3333 50.2053H33.6058C32.5048 50.2053 31.6123 51.0979 31.6123 52.1988C31.6123 52.5983 31.7298 52.9703 31.9321 53.2822ZM47.5344 48.4023C47.5045 48.4296 47.4751 48.4577 47.4462 48.4866C47.3677 48.5651 47.2952 48.6472 47.2286 48.7325C46.5023 49.6624 46.4813 50.9642 47.1655 51.9156C47.1859 51.944 47.2069 51.972 47.2286 51.9997C47.2821 52.0682 47.3394 52.1347 47.4005 52.1988C47.4155 52.2146 47.4307 52.2302 47.4462 52.2456M47.5344 48.4023C48.1988 47.7954 49.0966 47.5864 49.9218 47.7755C50.3921 47.8832 50.8388 48.1203 51.2051 48.4866L54.0871 51.3687C54.0863 51.3579 54.0855 51.3471 54.0846 51.3364C54.4801 51.0674 54.8591 50.7758 55.2195 50.4634C55.2098 51.0533 55.1121 51.6419 54.9265 52.208L55.434 52.7155C56.472 53.7535 56.472 55.4364 55.434 56.4744C55.0479 56.8605 54.5727 57.1029 54.0747 57.2018C53.6793 57.2803 53.2696 57.2684 52.8787 57.166C52.4377 57.0506 52.0206 56.82 51.675 56.4744L47.9536 52.7531M44.7052 62.6849C44.5213 62.5357 44.3141 62.414 44.09 62.3261C43.926 62.2618 43.7529 62.2155 43.5732 62.1898C43.4647 62.1743 43.3538 62.1663 43.2411 62.1663H34.9348M30.9479 64.8775V64.8243C30.9479 64.7666 30.9497 64.7094 30.9533 64.6526C30.9497 64.5995 30.9479 64.546 30.9479 64.492C30.9479 63.7177 31.3263 63.0318 31.9082 62.6091C32.2485 62.3619 32.6583 62.2047 33.1028 62.1725C33.1592 62.1684 33.2162 62.1663 33.2736 62.1663M30.9479 64.8775V68.3876ZM30.9479 68.3876V70.1403C30.9479 70.9496 31.3096 71.6744 31.8801 72.1619C32.3445 72.5587 32.9472 72.7982 33.6059 72.7982C34.8751 72.7982 35.9365 71.9086 36.2007 70.7189C36.242 70.5326 36.2638 70.339 36.2638 70.1403V66.8178H40.2509V70.1403C40.2509 70.339 40.2728 70.5326 40.3141 70.7189C40.5783 71.9086 41.6397 72.7982 42.9089 72.7982C43.5676 72.7982 44.1703 72.5587 44.6347 72.1619C45.2052 71.6744 45.5669 70.9496 45.5669 70.1403V64.8243C45.5669 64.7663 45.5651 64.7087 45.5614 64.6517C45.565 64.5989 45.5668 64.5457 45.5668 64.492C45.5668 63.7624 45.2308 63.1113 44.7052 62.6849M57.7226 50.4268L55.434 52.7155Z" fill="#FFD25D"/>
<path d="M44.9247 25.1261C44.9247 21.9431 47.41 19.3627 50.4757 19.3627C53.5414 19.3627 56.0267 21.9431 56.0267 25.1261V26.2788C56.0267 29.4619 53.5414 32.0423 50.4757 32.0423C47.41 32.0423 44.9247 29.4619 44.9247 26.2788V25.1261Z" fill="#FFD25D"/>
<path d="M27.1616 19.3627C24.0959 19.3627 21.6106 21.9431 21.6106 25.1261V26.2788C21.6106 29.4619 24.0959 32.0423 27.1616 32.0423C30.2273 32.0423 32.7126 29.4619 32.7126 26.2788V25.1261C32.7126 21.9431 30.2273 19.3627 27.1616 19.3627Z" fill="#FFD25D"/>
<path d="M38.8194 29.3252L33.3853 34.7593H44.2535L38.8194 29.3252Z" fill="#FFD25D"/>
<path fill-rule="evenodd" clip-rule="evenodd" d="M28.7424 11C21.1527 11 15 17.1527 15 24.7424C15 31.4975 19.8737 37.1141 26.2966 38.2679V41.2347C26.2966 43.2531 27.9329 44.8894 29.9514 44.8894C31.9511 44.8894 33.5757 43.2834 33.6057 41.2908C34.0384 41.461 34.4819 41.6097 34.9349 41.7356V43.2281C34.9349 45.2465 36.5712 46.8828 38.5896 46.8828C40.6081 46.8828 42.2443 45.2465 42.2443 43.2281V41.7355C42.6976 41.6096 43.1414 41.4608 43.5744 41.2905C43.6042 43.2832 45.2289 44.8894 47.2287 44.8894C49.2471 44.8894 50.8834 43.2531 50.8834 41.2347V38.2844C57.3527 37.1688 62.274 31.5304 62.274 24.7424C62.274 17.1527 56.1213 11 48.5316 11H28.7424ZM38.5896 48.2119C37.1694 48.2119 35.9383 49.022 35.3334 50.2053H33.6059C32.5049 50.2053 31.6124 51.0978 31.6124 52.1988C31.6124 53.2998 32.5049 54.1923 33.6059 54.1923H34.9349V55.8536C34.9349 55.9655 34.9399 56.0763 34.9498 56.1857H33.6059C32.5049 56.1857 31.6124 57.0782 31.6124 58.1792C31.6124 59.2802 32.5049 60.1727 33.6059 60.1727H43.5733C44.6743 60.1727 45.5668 59.2802 45.5668 58.1792C45.5668 57.0782 44.6743 56.1857 43.5733 56.1857H42.2295C42.2393 56.0763 42.2443 55.9655 42.2443 55.8536V54.1923H43.5733C44.6743 54.1923 45.5668 53.2998 45.5668 52.1988C45.5668 51.0978 44.6743 50.2053 43.5733 50.2053H41.8458C41.2409 49.022 40.0099 48.2119 38.5896 48.2119ZM30.948 64.492C30.948 63.2075 31.9892 62.1663 33.2737 62.1663H33.606H42.909H43.2412C44.5256 62.1663 45.5669 63.2075 45.5669 64.492C45.5669 64.5457 45.5651 64.5989 45.5615 64.6516C45.5652 64.7087 45.567 64.7663 45.567 64.8243V70.1402C45.567 71.6082 44.377 72.7982 42.909 72.7982C41.4411 72.7982 40.251 71.6082 40.251 70.1402V66.8177H36.2639V70.1402C36.2639 71.6082 35.0739 72.7982 33.606 72.7982C32.138 72.7982 30.948 71.6082 30.948 70.1402V64.8243C30.948 64.7666 30.9498 64.7093 30.9534 64.6526C30.9498 64.5995 30.948 64.546 30.948 64.492ZM47.4463 48.4866C46.4083 49.5246 46.4083 51.2076 47.4463 52.2456L51.6751 56.4744C52.7131 57.5124 54.3961 57.5124 55.4341 56.4744C56.4721 55.4364 56.4721 53.7535 55.4341 52.7155L51.2052 48.4866C50.1672 47.4486 48.4843 47.4486 47.4463 48.4866ZM25.9544 48.7622C26.9924 47.7242 28.6753 47.7242 29.7133 48.7622C30.7513 49.8002 30.7513 51.4832 29.7133 52.5212L25.4845 56.75C24.4465 57.788 22.7636 57.788 21.7255 56.75C20.6875 55.712 20.6875 54.029 21.7255 52.991L25.9544 48.7622Z" fill="white"/>
<path fill-rule="evenodd" clip-rule="evenodd" d="M32.7356 56.3852C32.9986 56.2574 33.2938 56.1857 33.6058 56.1857H34.9497C34.9398 56.0763 34.9348 55.9656 34.9348 55.8536V54.1923H33.6058C33.3451 54.1923 33.0961 54.1423 32.8679 54.0513C32.4054 53.8669 32.0281 53.5143 31.8117 53.069C31.684 52.806 31.6123 52.5108 31.6123 52.1988C31.6123 51.0979 32.5048 50.2054 33.6058 50.2054H35.3333C35.429 50.0181 35.5404 49.8403 35.6657 49.6735C36.3325 48.786 37.394 48.2119 38.5895 48.2119C39.7851 48.2119 40.8465 48.786 41.5133 49.6735C41.6387 49.8403 41.75 50.0181 41.8457 50.2054H43.5732C44.6742 50.2054 45.5667 51.0979 45.5667 52.1988C45.5667 52.5108 45.4951 52.806 45.3673 53.069C45.1723 53.4704 44.8465 53.7965 44.4453 53.992C44.1819 54.1203 43.886 54.1923 43.5732 54.1923H42.2443V55.8536C42.2443 55.9656 42.2392 56.0763 42.2294 56.1857H43.5732C43.8852 56.1857 44.1805 56.2574 44.4434 56.3852C44.8454 56.5805 45.1719 56.907 45.3673 57.3091C45.4951 57.572 45.5667 57.8672 45.5667 58.1792C45.5667 58.5252 45.4786 58.8506 45.3235 59.1342C44.9852 59.753 44.3282 60.1727 43.5732 60.1727H33.6059C33.4927 60.1727 33.3816 60.1633 33.2736 60.1452C32.5899 60.0305 32.0241 59.5677 31.7648 58.9454C31.6666 58.7095 31.6123 58.4507 31.6123 58.1792C31.6123 57.8672 31.684 57.572 31.8117 57.3091C32.0071 56.907 32.3336 56.5805 32.7356 56.3852ZM28.2313 58.8412C28.3172 59.5455 28.5382 60.208 28.8678 60.8021C28.0308 61.8004 27.5268 63.0874 27.5268 64.492C27.5268 64.5467 27.5276 64.6013 27.5291 64.6558C27.5276 64.7119 27.5268 64.768 27.5268 64.8243V70.1403C27.5268 73.4976 30.2485 76.2193 33.6059 76.2193C35.4723 76.2193 37.1423 75.3782 38.2574 74.0543C39.3725 75.3782 41.0425 76.2193 42.9089 76.2193C46.2663 76.2193 48.988 73.4976 48.988 70.1403V64.8243C48.988 64.7673 48.9872 64.7104 48.9856 64.6536C48.9871 64.5998 48.9879 64.546 48.9879 64.492C48.9879 63.304 48.6273 62.2002 48.0098 61.284C48.549 60.5149 48.8933 59.5992 48.971 58.6085L49.256 58.8935C51.63 61.2675 55.479 61.2675 57.853 58.8935C60.227 56.5195 60.227 52.6704 57.853 50.2964L53.6242 46.0676C53.3983 45.8417 53.1591 45.6373 52.909 45.4544C53.7856 44.2763 54.3044 42.8161 54.3044 41.2347V40.91C60.9439 38.5387 65.695 32.1981 65.695 24.7425C65.695 15.2633 58.0106 7.57898 48.5315 7.57898H28.7424C19.2632 7.57898 11.5789 15.2633 11.5789 24.7425C11.5789 32.163 16.2853 38.4788 22.8755 40.8761V41.2347C22.8755 42.8926 23.4457 44.4174 24.4007 45.6235C24.0959 45.8325 23.806 46.0724 23.5352 46.3432L19.3064 50.572C16.9324 52.946 16.9324 56.7951 19.3064 59.1691C21.6804 61.5431 25.5295 61.5431 27.9035 59.1691L28.2313 58.8412ZM28.5289 44.6023C27.217 44.0475 26.2965 42.7486 26.2965 41.2347V38.2679C19.8736 37.1142 14.9999 31.4975 14.9999 24.7425C14.9999 17.1527 21.1526 11 28.7424 11H48.5315C56.1212 11 62.2739 17.1527 62.2739 24.7425C62.2739 31.5304 57.3526 37.1689 50.8833 38.2845V41.2347C50.8833 42.5107 50.2294 43.634 49.2383 44.2877C48.6617 44.6681 47.971 44.8894 47.2286 44.8894C47.0661 44.8894 46.9061 44.8788 46.7492 44.8583C46.3234 44.8025 45.9207 44.6734 45.5542 44.4841C45.1611 44.2812 44.8096 44.009 44.5158 43.6838C44.3873 43.5416 44.2699 43.3893 44.1649 43.2281C43.8774 42.7873 43.6826 42.2806 43.6079 41.7355C43.5879 41.5898 43.5765 41.4412 43.5743 41.2905C43.1413 41.4608 42.6975 41.6096 42.2443 41.7355V43.2281C42.2443 44.0479 41.9744 44.8046 41.5186 45.4142C41.5168 45.4167 41.515 45.4191 41.5131 45.4215C40.8463 46.3089 39.785 46.8828 38.5895 46.8828C37.3941 46.8828 36.3327 46.3089 35.6659 45.4215C35.6642 45.4193 35.6625 45.4171 35.6609 45.4148C35.2048 44.805 34.9348 44.0481 34.9348 43.2281V41.7356C34.4818 41.6097 34.0383 41.4611 33.6056 41.2909C33.6033 41.4415 33.5919 41.5899 33.572 41.7356C33.4973 42.2806 33.3024 42.7873 33.015 43.2281C32.9101 43.389 32.7929 43.5411 32.6647 43.6831C32.3706 44.0089 32.0186 44.2814 31.625 44.4845C31.1235 44.7433 30.5545 44.8894 29.9513 44.8894C29.8988 44.8894 29.8465 44.8883 29.7945 44.8861C29.3471 44.8672 28.9206 44.7679 28.5289 44.6023ZM28.9846 48.245C28.6176 48.0687 28.2185 47.9817 27.8197 47.9838C27.1442 47.9873 26.4697 48.2468 25.9543 48.7622L21.7255 52.9911C20.6874 54.0291 20.6874 55.712 21.7255 56.75C22.7635 57.788 24.4464 57.788 25.4844 56.75L29.7132 52.5212C29.8149 52.4195 29.9066 52.3117 29.9884 52.1988C30.7413 51.1597 30.6496 49.6986 29.7132 48.7622C29.6604 48.7094 29.6059 48.6592 29.5498 48.6118C29.3744 48.4631 29.1843 48.3409 28.9846 48.245ZM47.4817 48.4517C47.4698 48.4632 47.4579 48.4749 47.4462 48.4867C46.4236 49.5092 46.4084 51.1577 47.4005 52.1988C47.4155 52.2146 47.4307 52.2302 47.4462 52.2456L51.675 56.4744C52.713 57.5125 54.396 57.5125 55.434 56.4744C56.472 55.4364 56.472 53.7535 55.434 52.7155L51.2051 48.4867C50.8406 48.1221 50.3964 47.8856 49.9286 47.7771C49.1509 47.5967 48.3077 47.7703 47.6559 48.2978C47.5962 48.3461 47.5381 48.3974 47.4817 48.4517ZM45.2547 63.3276C44.9051 62.7243 44.2922 62.2927 43.5732 62.1898C43.4647 62.1743 43.3538 62.1663 43.2411 62.1663H33.2736C32.5011 62.1663 31.8165 62.543 31.3935 63.1227C31.1133 63.5068 30.9479 63.9801 30.9479 64.492C30.9479 64.546 30.9497 64.5996 30.9533 64.6526C30.9497 64.7094 30.9479 64.7666 30.9479 64.8243V70.1403C30.9479 71.6082 32.1379 72.7983 33.6059 72.7983C35.0738 72.7983 36.2639 71.6082 36.2639 70.1403V66.8178H40.251V70.1403C40.251 71.6082 41.441 72.7983 42.9089 72.7983C44.3769 72.7983 45.5669 71.6082 45.5669 70.1403V64.8243C45.5669 64.7663 45.5651 64.7087 45.5614 64.6517C45.565 64.5989 45.5668 64.5457 45.5668 64.492C45.5668 64.0678 45.4532 63.67 45.2547 63.3276Z" fill="black"/>
<path d="M44.9247 25.1261C44.9247 21.9431 47.41 19.3627 50.4757 19.3627C53.5414 19.3627 56.0267 21.9431 56.0267 25.1261V26.2788C56.0267 29.4619 53.5414 32.0423 50.4757 32.0423C47.41 32.0423 44.9247 29.4619 44.9247 26.2788V25.1261Z" fill="black"/>
<path d="M27.1616 19.3627C24.0959 19.3627 21.6106 21.9431 21.6106 25.1261V26.2788C21.6106 29.4619 24.0959 32.0423 27.1616 32.0423C30.2273 32.0423 32.7126 29.4619 32.7126 26.2788V25.1261C32.7126 21.9431 30.2273 19.3627 27.1616 19.3627Z" fill="black"/>
<path d="M38.8194 29.3252L33.3853 34.7593H44.2535L38.8194 29.3252Z" fill="black"/>
</svg>
