<svg width="77" height="84" viewBox="0 0 77 84" fill="none" xmlns="http://www.w3.org/2000/svg">
<path fill-rule="evenodd" clip-rule="evenodd" d="M27.7424 11C20.1527 11 14 17.1527 14 24.7424C14 31.4975 18.8737 37.1141 25.2966 38.2679V41.2347C25.2966 43.2531 26.9329 44.8894 28.9514 44.8894C30.9511 44.8894 32.5757 43.2834 32.6057 41.2908C33.0384 41.461 33.4819 41.6097 33.9349 41.7356V43.2281C33.9349 45.2465 35.5712 46.8828 37.5896 46.8828C39.6081 46.8828 41.2443 45.2465 41.2443 43.2281V41.7355C41.6976 41.6096 42.1414 41.4608 42.5744 41.2905C42.6042 43.2832 44.2289 44.8894 46.2287 44.8894C48.2471 44.8894 49.8834 43.2531 49.8834 41.2347V38.2844C56.3527 37.1688 61.274 31.5304 61.274 24.7424C61.274 17.1527 55.1213 11 47.5316 11H27.7424ZM37.5896 48.2119C36.1694 48.2119 34.9383 49.022 34.3334 50.2053H32.6059C31.5049 50.2053 30.6124 51.0978 30.6124 52.1988C30.6124 53.2998 31.5049 54.1923 32.6059 54.1923H33.9349V55.8536C33.9349 55.9655 33.9399 56.0763 33.9498 56.1857H32.6059C31.5049 56.1857 30.6124 57.0782 30.6124 58.1792C30.6124 59.2802 31.5049 60.1727 32.6059 60.1727H42.5733C43.6743 60.1727 44.5668 59.2802 44.5668 58.1792C44.5668 57.0782 43.6743 56.1857 42.5733 56.1857H41.2295C41.2393 56.0763 41.2443 55.9655 41.2443 55.8536V54.1923H42.5733C43.6743 54.1923 44.5668 53.2998 44.5668 52.1988C44.5668 51.0978 43.6743 50.2053 42.5733 50.2053H40.8458C40.2409 49.022 39.0099 48.2119 37.5896 48.2119ZM29.948 64.492C29.948 63.2075 30.9892 62.1663 32.2737 62.1663H32.606H41.909H42.2412C43.5256 62.1663 44.5669 63.2075 44.5669 64.492C44.5669 64.5457 44.5651 64.5989 44.5615 64.6516C44.5652 64.7087 44.567 64.7663 44.567 64.8243V70.1402C44.567 71.6082 43.377 72.7982 41.909 72.7982C40.4411 72.7982 39.251 71.6082 39.251 70.1402V66.8177H35.2639V70.1402C35.2639 71.6082 34.0739 72.7982 32.606 72.7982C31.138 72.7982 29.948 71.6082 29.948 70.1402V64.8243C29.948 64.7666 29.9498 64.7093 29.9534 64.6526C29.9498 64.5995 29.948 64.546 29.948 64.492ZM46.4463 48.4866C45.4083 49.5246 45.4083 51.2076 46.4463 52.2456L50.6751 56.4744C51.7131 57.5124 53.3961 57.5124 54.4341 56.4744C55.4721 55.4364 55.4721 53.7535 54.4341 52.7155L50.2052 48.4866C49.1672 47.4486 47.4843 47.4486 46.4463 48.4866ZM24.9544 48.7622C25.9924 47.7242 27.6753 47.7242 28.7133 48.7622C29.7513 49.8002 29.7513 51.4832 28.7133 52.5212L24.4845 56.75C23.4465 57.788 21.7636 57.788 20.7255 56.75C19.6875 55.712 19.6875 54.029 20.7255 52.991L24.9544 48.7622Z" fill="#FFD25D"/>
<path fill-rule="evenodd" clip-rule="evenodd" d="M31.7356 56.3852C31.9986 56.2574 32.2938 56.1857 32.6058 56.1857H33.9497C33.9398 56.0763 33.9348 55.9656 33.9348 55.8536V54.1923H32.6058C32.3451 54.1923 32.0961 54.1423 31.8679 54.0513C31.4054 53.8669 31.0281 53.5143 30.8117 53.069C30.684 52.806 30.6123 52.5108 30.6123 52.1988C30.6123 51.0979 31.5048 50.2054 32.6058 50.2054H34.3333C34.429 50.0181 34.5404 49.8403 34.6657 49.6735C35.3325 48.786 36.394 48.2119 37.5895 48.2119C38.7851 48.2119 39.8465 48.786 40.5133 49.6735C40.6387 49.8403 40.75 50.0181 40.8457 50.2054H42.5732C43.6742 50.2054 44.5667 51.0979 44.5667 52.1988C44.5667 52.5108 44.4951 52.806 44.3673 53.069C44.1723 53.4704 43.8465 53.7965 43.4453 53.992C43.1819 54.1203 42.886 54.1923 42.5732 54.1923H41.2443V55.8536C41.2443 55.9656 41.2392 56.0763 41.2294 56.1857H42.5732C42.8852 56.1857 43.1805 56.2574 43.4434 56.3852C43.8454 56.5805 44.1719 56.907 44.3673 57.3091C44.4951 57.572 44.5667 57.8672 44.5667 58.1792C44.5667 58.5252 44.4786 58.8506 44.3235 59.1342C43.9852 59.753 43.3282 60.1727 42.5732 60.1727H32.6059C32.4927 60.1727 32.3816 60.1633 32.2736 60.1452C31.5899 60.0305 31.0241 59.5677 30.7648 58.9454C30.6666 58.7095 30.6123 58.4507 30.6123 58.1792C30.6123 57.8672 30.684 57.572 30.8117 57.3091C31.0071 56.907 31.3336 56.5805 31.7356 56.3852ZM27.2313 58.8412C27.3172 59.5455 27.5382 60.208 27.8678 60.8021C27.0308 61.8004 26.5268 63.0874 26.5268 64.492C26.5268 64.5467 26.5276 64.6013 26.5291 64.6558C26.5276 64.7119 26.5268 64.768 26.5268 64.8243V70.1403C26.5268 73.4976 29.2485 76.2193 32.6059 76.2193C34.4723 76.2193 36.1423 75.3782 37.2574 74.0543C38.3725 75.3782 40.0425 76.2193 41.9089 76.2193C45.2663 76.2193 47.988 73.4976 47.988 70.1403V64.8243C47.988 64.7673 47.9872 64.7104 47.9856 64.6536C47.9871 64.5998 47.9879 64.546 47.9879 64.492C47.9879 63.304 47.6273 62.2002 47.0098 61.284C47.549 60.5149 47.8933 59.5992 47.971 58.6085L48.256 58.8935C50.63 61.2675 54.479 61.2675 56.853 58.8935C59.227 56.5195 59.227 52.6704 56.853 50.2964L52.6242 46.0676C52.3983 45.8417 52.1591 45.6373 51.909 45.4544C52.7856 44.2763 53.3044 42.8161 53.3044 41.2347V40.91C59.9439 38.5387 64.695 32.1981 64.695 24.7425C64.695 15.2633 57.0106 7.57898 47.5315 7.57898H27.7424C18.2632 7.57898 10.5789 15.2633 10.5789 24.7425C10.5789 32.163 15.2853 38.4788 21.8755 40.8761V41.2347C21.8755 42.8926 22.4457 44.4174 23.4007 45.6235C23.0959 45.8325 22.806 46.0724 22.5352 46.3432L18.3064 50.572C15.9324 52.946 15.9324 56.7951 18.3064 59.1691C20.6804 61.5431 24.5295 61.5431 26.9035 59.1691L27.2313 58.8412ZM27.5289 44.6023C26.217 44.0475 25.2965 42.7486 25.2965 41.2347V38.2679C18.8736 37.1142 13.9999 31.4975 13.9999 24.7425C13.9999 17.1527 20.1526 11 27.7424 11H47.5315C55.1212 11 61.2739 17.1527 61.2739 24.7425C61.2739 31.5304 56.3526 37.1689 49.8833 38.2845V41.2347C49.8833 42.5107 49.2294 43.634 48.2383 44.2877C47.6617 44.6681 46.971 44.8894 46.2286 44.8894C46.0661 44.8894 45.9061 44.8788 45.7492 44.8583C45.3234 44.8025 44.9207 44.6734 44.5542 44.4841C44.1611 44.2812 43.8096 44.009 43.5158 43.6838C43.3873 43.5416 43.2699 43.3893 43.1649 43.2281C42.8774 42.7873 42.6826 42.2805 42.6079 41.7355C42.5879 41.5898 42.5765 41.4412 42.5743 41.2905C42.1413 41.4608 41.6975 41.6096 41.2443 41.7355V43.2281C41.2443 44.0479 40.9744 44.8046 40.5186 45.4142C40.5168 45.4167 40.515 45.4191 40.5131 45.4215C39.8463 46.3089 38.785 46.8828 37.5895 46.8828C36.3941 46.8828 35.3327 46.3089 34.6659 45.4215C34.6642 45.4193 34.6625 45.4171 34.6609 45.4148C34.2048 44.805 33.9348 44.0481 33.9348 43.2281V41.7356C33.4818 41.6097 33.0383 41.4611 32.6056 41.2909C32.6033 41.4415 32.5919 41.5899 32.572 41.7356C32.4973 42.2806 32.3024 42.7873 32.015 43.2281C31.9101 43.389 31.7929 43.5411 31.6647 43.6831C31.3706 44.0089 31.0186 44.2814 30.625 44.4845C30.1235 44.7433 29.5545 44.8894 28.9513 44.8894C28.8988 44.8894 28.8465 44.8883 28.7945 44.8861C28.3471 44.8672 27.9206 44.7679 27.5289 44.6023ZM27.9846 48.245C27.6176 48.0687 27.2185 47.9817 26.8197 47.9838C26.1442 47.9873 25.4697 48.2468 24.9543 48.7622L20.7255 52.9911C19.6874 54.0291 19.6874 55.712 20.7255 56.75C21.7635 57.788 23.4464 57.788 24.4844 56.75L28.7132 52.5212C28.8149 52.4195 28.9066 52.3117 28.9884 52.1988C29.7413 51.1597 29.6496 49.6986 28.7132 48.7622C28.6604 48.7094 28.6059 48.6592 28.5498 48.6118C28.3744 48.4631 28.1843 48.3409 27.9846 48.245ZM46.4817 48.4517C46.4698 48.4632 46.4579 48.4749 46.4462 48.4867C45.4236 49.5092 45.4084 51.1577 46.4005 52.1988C46.4155 52.2146 46.4307 52.2302 46.4462 52.2456L50.675 56.4744C51.713 57.5125 53.396 57.5125 54.434 56.4744C55.472 55.4364 55.472 53.7535 54.434 52.7155L50.2051 48.4867C49.8406 48.1221 49.3964 47.8856 48.9286 47.7771C48.1509 47.5967 47.3077 47.7703 46.6559 48.2978C46.5962 48.3461 46.5381 48.3974 46.4817 48.4517ZM44.2547 63.3276C43.9051 62.7243 43.2922 62.2927 42.5732 62.1898C42.4647 62.1743 42.3538 62.1663 42.2411 62.1663H32.2736C31.5011 62.1663 30.8165 62.543 30.3935 63.1227C30.1133 63.5068 29.9479 63.9801 29.9479 64.492C29.9479 64.546 29.9497 64.5996 29.9533 64.6526C29.9497 64.7094 29.9479 64.7666 29.9479 64.8243V70.1403C29.9479 71.6082 31.1379 72.7983 32.6059 72.7983C34.0738 72.7983 35.2639 71.6082 35.2639 70.1403V66.8178H39.251V70.1403C39.251 71.6082 40.441 72.7983 41.9089 72.7983C43.3769 72.7983 44.5669 71.6082 44.5669 70.1403V64.8243C44.5669 64.7663 44.5651 64.7087 44.5614 64.6517C44.565 64.5989 44.5668 64.5457 44.5668 64.492C44.5668 64.0678 44.4532 63.67 44.2547 63.3276Z" fill="black"/>
<path d="M43.9247 25.126C43.9247 21.9429 46.41 19.3625 49.4757 19.3625C52.5414 19.3625 55.0267 21.9429 55.0267 25.126V26.2787C55.0267 29.4618 52.5414 32.0422 49.4757 32.0422C46.41 32.0422 43.9247 29.4618 43.9247 26.2787V25.126Z" fill="black"/>
<path d="M26.1616 19.3625C23.0959 19.3625 20.6106 21.9429 20.6106 25.126V26.2787C20.6106 29.4618 23.0959 32.0422 26.1616 32.0422C29.2273 32.0422 31.7126 29.4618 31.7126 26.2787V25.126C31.7126 21.9429 29.2273 19.3625 26.1616 19.3625Z" fill="black"/>
<path d="M37.8194 29.3251L32.3853 34.7592H43.2535L37.8194 29.3251Z" fill="black"/>
</svg>
