<svg width="77" height="84" viewBox="0 0 77 84" fill="none" xmlns="http://www.w3.org/2000/svg">
<mask id="path-1-outside-1" maskUnits="userSpaceOnUse" x="6" y="2" width="65" height="80" fill="black">
<rect fill="white" x="6" y="2" width="65" height="80"/>
<path fill-rule="evenodd" clip-rule="evenodd" d="M28.7424 11C21.1527 11 15 17.1527 15 24.7424C15 31.4975 19.8737 37.1141 26.2966 38.2679V41.2347C26.2966 43.2531 27.9329 44.8894 29.9514 44.8894C31.9511 44.8894 33.5757 43.2834 33.6057 41.2908C34.0384 41.461 34.4819 41.6097 34.9349 41.7356V43.2281C34.9349 45.2465 36.5712 46.8828 38.5896 46.8828C40.6081 46.8828 42.2443 45.2465 42.2443 43.2281V41.7355C42.6976 41.6096 43.1414 41.4608 43.5744 41.2905C43.6042 43.2832 45.2289 44.8894 47.2287 44.8894C49.2471 44.8894 50.8834 43.2531 50.8834 41.2347V38.2844C57.3527 37.1688 62.274 31.5304 62.274 24.7424C62.274 17.1527 56.1213 11 48.5316 11H28.7424ZM38.5896 48.2119C37.1694 48.2119 35.9383 49.022 35.3334 50.2053H33.6059C32.5049 50.2053 31.6124 51.0978 31.6124 52.1988C31.6124 53.2998 32.5049 54.1923 33.6059 54.1923H34.9349V55.8536C34.9349 55.9655 34.9399 56.0763 34.9498 56.1857H33.6059C32.5049 56.1857 31.6124 57.0782 31.6124 58.1792C31.6124 59.2802 32.5049 60.1727 33.6059 60.1727H43.5733C44.6743 60.1727 45.5668 59.2802 45.5668 58.1792C45.5668 57.0782 44.6743 56.1857 43.5733 56.1857H42.2295C42.2393 56.0763 42.2443 55.9655 42.2443 55.8536V54.1923H43.5733C44.6743 54.1923 45.5668 53.2998 45.5668 52.1988C45.5668 51.0978 44.6743 50.2053 43.5733 50.2053H41.8458C41.2409 49.022 40.0099 48.2119 38.5896 48.2119ZM30.948 64.492C30.948 63.2075 31.9892 62.1663 33.2737 62.1663H33.606H42.909H43.2412C44.5256 62.1663 45.5669 63.2075 45.5669 64.492C45.5669 64.5457 45.5651 64.5989 45.5615 64.6516C45.5652 64.7087 45.567 64.7663 45.567 64.8243V70.1402C45.567 71.6082 44.377 72.7982 42.909 72.7982C41.4411 72.7982 40.251 71.6082 40.251 70.1402V66.8177H36.2639V70.1402C36.2639 71.6082 35.0739 72.7982 33.606 72.7982C32.138 72.7982 30.948 71.6082 30.948 70.1402V64.8243C30.948 64.7666 30.9498 64.7093 30.9534 64.6526C30.9498 64.5995 30.948 64.546 30.948 64.492ZM47.4463 48.4866C46.4083 49.5246 46.4083 51.2076 47.4463 52.2456L51.6751 56.4744C52.7131 57.5124 54.3961 57.5124 55.4341 56.4744C56.4721 55.4364 56.4721 53.7535 55.4341 52.7155L51.2052 48.4866C50.1672 47.4486 48.4843 47.4486 47.4463 48.4866ZM25.9544 48.7622C26.9924 47.7242 28.6753 47.7242 29.7133 48.7622C30.7513 49.8002 30.7513 51.4832 29.7133 52.5212L25.4845 56.75C24.4465 57.788 22.7636 57.788 21.7255 56.75C20.6875 55.712 20.6875 54.029 21.7255 52.991L25.9544 48.7622Z"/>
</mask>
<path fill-rule="evenodd" clip-rule="evenodd" d="M28.7424 11C21.1527 11 15 17.1527 15 24.7424C15 31.4975 19.8737 37.1141 26.2966 38.2679V41.2347C26.2966 43.2531 27.9329 44.8894 29.9514 44.8894C31.9511 44.8894 33.5757 43.2834 33.6057 41.2908C34.0384 41.461 34.4819 41.6097 34.9349 41.7356V43.2281C34.9349 45.2465 36.5712 46.8828 38.5896 46.8828C40.6081 46.8828 42.2443 45.2465 42.2443 43.2281V41.7355C42.6976 41.6096 43.1414 41.4608 43.5744 41.2905C43.6042 43.2832 45.2289 44.8894 47.2287 44.8894C49.2471 44.8894 50.8834 43.2531 50.8834 41.2347V38.2844C57.3527 37.1688 62.274 31.5304 62.274 24.7424C62.274 17.1527 56.1213 11 48.5316 11H28.7424ZM38.5896 48.2119C37.1694 48.2119 35.9383 49.022 35.3334 50.2053H33.6059C32.5049 50.2053 31.6124 51.0978 31.6124 52.1988C31.6124 53.2998 32.5049 54.1923 33.6059 54.1923H34.9349V55.8536C34.9349 55.9655 34.9399 56.0763 34.9498 56.1857H33.6059C32.5049 56.1857 31.6124 57.0782 31.6124 58.1792C31.6124 59.2802 32.5049 60.1727 33.6059 60.1727H43.5733C44.6743 60.1727 45.5668 59.2802 45.5668 58.1792C45.5668 57.0782 44.6743 56.1857 43.5733 56.1857H42.2295C42.2393 56.0763 42.2443 55.9655 42.2443 55.8536V54.1923H43.5733C44.6743 54.1923 45.5668 53.2998 45.5668 52.1988C45.5668 51.0978 44.6743 50.2053 43.5733 50.2053H41.8458C41.2409 49.022 40.0099 48.2119 38.5896 48.2119ZM30.948 64.492C30.948 63.2075 31.9892 62.1663 33.2737 62.1663H33.606H42.909H43.2412C44.5256 62.1663 45.5669 63.2075 45.5669 64.492C45.5669 64.5457 45.5651 64.5989 45.5615 64.6516C45.5652 64.7087 45.567 64.7663 45.567 64.8243V70.1402C45.567 71.6082 44.377 72.7982 42.909 72.7982C41.4411 72.7982 40.251 71.6082 40.251 70.1402V66.8177H36.2639V70.1402C36.2639 71.6082 35.0739 72.7982 33.606 72.7982C32.138 72.7982 30.948 71.6082 30.948 70.1402V64.8243C30.948 64.7666 30.9498 64.7093 30.9534 64.6526C30.9498 64.5995 30.948 64.546 30.948 64.492ZM47.4463 48.4866C46.4083 49.5246 46.4083 51.2076 47.4463 52.2456L51.6751 56.4744C52.7131 57.5124 54.3961 57.5124 55.4341 56.4744C56.4721 55.4364 56.4721 53.7535 55.4341 52.7155L51.2052 48.4866C50.1672 47.4486 48.4843 47.4486 47.4463 48.4866ZM25.9544 48.7622C26.9924 47.7242 28.6753 47.7242 29.7133 48.7622C30.7513 49.8002 30.7513 51.4832 29.7133 52.5212L25.4845 56.75C24.4465 57.788 22.7636 57.788 21.7255 56.75C20.6875 55.712 20.6875 54.029 21.7255 52.991L25.9544 48.7622Z" fill="white"/>
<path d="M26.2966 38.2679H34.8493V31.1147L27.8088 29.85L26.2966 38.2679ZM33.6057 41.2908L36.7361 33.3317L25.2401 28.8102L25.054 41.162L33.6057 41.2908ZM34.9349 41.7356H43.4875V35.2351L37.2243 33.495L34.9349 41.7356ZM42.2443 41.7355L39.9548 33.495L33.6917 35.2352V41.7355H42.2443ZM43.5744 41.2905L52.126 41.1625L51.9412 28.8084L40.4434 33.3315L43.5744 41.2905ZM50.8834 38.2844L49.43 29.8562L42.3308 31.0805V38.2844H50.8834ZM35.3334 50.2053V58.758H40.5666L42.9487 54.0983L35.3334 50.2053ZM34.9349 54.1923H43.4875V45.6397H34.9349V54.1923ZM34.9498 56.1857V64.7383H44.3074L43.4679 55.4184L34.9498 56.1857ZM42.2295 56.1857L33.7113 55.4184L32.8718 64.7383H42.2295V56.1857ZM42.2443 54.1923V45.6397H33.6917V54.1923H42.2443ZM41.8458 50.2053L34.2306 54.0983L36.6126 58.758H41.8458V50.2053ZM45.5615 64.6516L37.0285 64.0731L36.9903 64.6359L37.0264 65.1988L45.5615 64.6516ZM40.251 66.8177H48.8037V58.2651H40.251V66.8177ZM36.2639 66.8177V58.2651H27.7113V66.8177H36.2639ZM30.9534 64.6526L39.4887 65.1968L39.5246 64.6337L39.4862 64.0708L30.9534 64.6526ZM47.4463 52.2456L41.3986 58.2932L41.3986 58.2932L47.4463 52.2456ZM47.4463 48.4866L41.3987 42.439L41.3986 42.439L47.4463 48.4866ZM51.6751 56.4744L45.6275 62.522L45.6275 62.5221L51.6751 56.4744ZM29.7133 48.7622L23.6657 54.8098L23.6657 54.8098L29.7133 48.7622ZM25.9544 48.7622L32.002 54.8098L32.002 54.8098L25.9544 48.7622ZM29.7133 52.5212L35.761 58.5688L35.761 58.5688L29.7133 52.5212ZM25.4845 56.75L31.5321 62.7976L31.5321 62.7976L25.4845 56.75ZM21.7255 56.75L15.6779 62.7976L15.6779 62.7976L21.7255 56.75ZM21.7255 52.991L27.7732 59.0387L27.7732 59.0387L21.7255 52.991ZM23.5526 24.7424C23.5526 21.8762 25.8762 19.5526 28.7424 19.5526V2.44737C16.4292 2.44737 6.44737 12.4292 6.44737 24.7424H23.5526ZM27.8088 29.85C25.3888 29.4153 23.5526 27.2845 23.5526 24.7424H6.44737C6.44737 35.7104 14.3587 44.813 24.7845 46.6858L27.8088 29.85ZM34.8493 41.2347V38.2679H17.744V41.2347H34.8493ZM29.9514 36.3368C32.6564 36.3368 34.8493 38.5296 34.8493 41.2347H17.744C17.744 47.9766 23.2094 53.442 29.9514 53.442V36.3368ZM25.054 41.162C25.0943 38.4889 27.2707 36.3368 29.9514 36.3368V53.442C36.6314 53.442 42.057 48.0779 42.1573 41.4197L25.054 41.162ZM30.4753 49.25C31.1816 49.5278 31.9057 49.7706 32.6455 49.9761L37.2243 33.495C37.058 33.4488 36.8952 33.3943 36.7361 33.3317L30.4753 49.25ZM43.4875 43.2281V41.7356H26.3822V43.2281H43.4875ZM38.5896 38.3302C41.2947 38.3302 43.4875 40.5231 43.4875 43.2281H26.3822C26.3822 49.97 31.8477 55.4354 38.5896 55.4354V38.3302ZM33.6917 43.2281C33.6917 40.523 35.8846 38.3302 38.5896 38.3302V55.4354C45.3315 55.4354 50.797 49.97 50.797 43.2281H33.6917ZM33.6917 41.7355V43.2281H50.797V41.7355H33.6917ZM44.5339 49.976C45.274 49.7703 45.9986 49.5274 46.7054 49.2494L40.4434 33.3315C40.2842 33.3942 40.1212 33.4488 39.9548 33.495L44.5339 49.976ZM47.2287 36.3368C49.9095 36.3368 52.086 38.4892 52.126 41.1625L35.0227 41.4184C35.1223 48.0772 40.5482 53.442 47.2287 53.442V36.3368ZM42.3308 41.2347C42.3308 38.5296 44.5237 36.3368 47.2287 36.3368V53.442C53.9706 53.442 59.4361 47.9766 59.4361 41.2347H42.3308ZM42.3308 38.2844V41.2347H59.4361V38.2844H42.3308ZM53.7214 24.7424C53.7214 27.2972 51.8669 29.436 49.43 29.8562L52.3369 46.7127C62.8384 44.9017 70.8267 35.7635 70.8267 24.7424H53.7214ZM48.5316 19.5526C51.3978 19.5526 53.7214 21.8762 53.7214 24.7424H70.8267C70.8267 12.4292 60.8448 2.44737 48.5316 2.44737V19.5526ZM28.7424 19.5526H48.5316V2.44737H28.7424V19.5526ZM42.9487 54.0983C42.1488 55.663 40.5052 56.7645 38.5896 56.7645V39.6592C33.8335 39.6592 29.7279 42.381 27.7181 46.3123L42.9487 54.0983ZM33.6059 58.758H35.3334V41.6527H33.6059V58.758ZM40.165 52.1988C40.165 55.8213 37.2284 58.758 33.6059 58.758V41.6527C27.7814 41.6527 23.0597 46.3744 23.0597 52.1988H40.165ZM33.6059 45.6397C37.2284 45.6397 40.165 48.5763 40.165 52.1988H23.0597C23.0597 58.0233 27.7814 62.7449 33.6059 62.7449V45.6397ZM34.9349 45.6397H33.6059V62.7449H34.9349V45.6397ZM43.4875 55.8536V54.1923H26.3822V55.8536H43.4875ZM43.4679 55.4184C43.481 55.5638 43.4875 55.709 43.4875 55.8536H26.3822C26.3822 56.222 26.3988 56.5888 26.4316 56.953L43.4679 55.4184ZM33.6059 64.7383H34.9498V47.6331H33.6059V64.7383ZM40.165 58.1792C40.165 61.8017 37.2284 64.7383 33.6059 64.7383V47.6331C27.7814 47.6331 23.0597 52.3547 23.0597 58.1792H40.165ZM33.6059 51.62C37.2284 51.62 40.165 54.5566 40.165 58.1792H23.0597C23.0597 64.0037 27.7814 68.7253 33.6059 68.7253V51.62ZM43.5733 51.62H33.6059V68.7253H43.5733V51.62ZM37.0142 58.1792C37.0142 54.5567 39.9508 51.62 43.5733 51.62V68.7253C49.3978 68.7253 54.1194 64.0037 54.1194 58.1792H37.0142ZM43.5733 64.7383C39.9508 64.7383 37.0142 61.8017 37.0142 58.1792H54.1194C54.1194 52.3547 49.3978 47.6331 43.5733 47.6331V64.7383ZM42.2295 64.7383H43.5733V47.6331H42.2295V64.7383ZM33.6917 55.8536C33.6917 55.709 33.6982 55.5638 33.7113 55.4184L50.7476 56.953C50.7804 56.5888 50.797 56.222 50.797 55.8536H33.6917ZM33.6917 54.1923V55.8536H50.797V54.1923H33.6917ZM43.5733 45.6397H42.2443V62.7449H43.5733V45.6397ZM37.0142 52.1988C37.0142 48.5763 39.9508 45.6397 43.5733 45.6397V62.7449C49.3978 62.7449 54.1194 58.0233 54.1194 52.1988H37.0142ZM43.5733 58.758C39.9508 58.758 37.0142 55.8213 37.0142 52.1988H54.1194C54.1194 46.3744 49.3978 41.6527 43.5733 41.6527V58.758ZM41.8458 58.758H43.5733V41.6527H41.8458V58.758ZM38.5896 56.7645C36.674 56.7645 35.0304 55.663 34.2306 54.0983L49.4611 46.3123C47.4513 42.381 43.3457 39.6592 38.5896 39.6592V56.7645ZM33.2737 53.6136C27.2657 53.6136 22.3953 58.4841 22.3953 64.492H39.5006C39.5006 67.931 36.7127 70.7189 33.2737 70.7189V53.6136ZM33.606 53.6136H33.2737V70.7189H33.606V53.6136ZM42.909 53.6136H33.606V70.7189H42.909V53.6136ZM43.2412 53.6136H42.909V70.7189H43.2412V53.6136ZM54.1195 64.492C54.1195 58.484 49.2491 53.6136 43.2412 53.6136V70.7189C39.8021 70.7189 37.0143 67.931 37.0143 64.492H54.1195ZM54.0945 65.2302C54.1112 64.9849 54.1195 64.7387 54.1195 64.492H37.0143C37.0143 64.3527 37.019 64.2129 37.0285 64.0731L54.0945 65.2302ZM54.1196 64.8243C54.1196 64.5837 54.1119 64.3437 54.0966 64.1045L37.0264 65.1988C37.0184 65.0737 37.0144 64.9488 37.0144 64.8243H54.1196ZM54.1196 70.1402V64.8243H37.0144V70.1402H54.1196ZM42.909 81.3509C49.1005 81.3509 54.1196 76.3317 54.1196 70.1402H37.0144C37.0144 66.8847 39.6535 64.2456 42.909 64.2456V81.3509ZM31.6984 70.1402C31.6984 76.3317 36.7176 81.3509 42.909 81.3509V64.2456C46.1645 64.2456 48.8037 66.8847 48.8037 70.1402H31.6984ZM31.6984 66.8177V70.1402H48.8037V66.8177H31.6984ZM36.2639 75.3704H40.251V58.2651H36.2639V75.3704ZM44.8166 70.1402V66.8177H27.7113V70.1402H44.8166ZM33.606 81.3509C39.7974 81.3509 44.8166 76.3317 44.8166 70.1402H27.7113C27.7113 66.8847 30.3504 64.2456 33.606 64.2456V81.3509ZM22.3953 70.1402C22.3953 76.3317 27.4145 81.3509 33.606 81.3509V64.2456C36.8615 64.2456 39.5006 66.8847 39.5006 70.1402H22.3953ZM22.3953 64.8243V70.1402H39.5006V64.8243H22.3953ZM22.4181 64.1084C22.403 64.3462 22.3953 64.585 22.3953 64.8243H39.5006C39.5006 64.9482 39.4966 65.0725 39.4887 65.1968L22.4181 64.1084ZM22.3953 64.492C22.3953 64.7403 22.4038 64.9879 22.4206 65.2344L39.4862 64.0708C39.4958 64.2112 39.5006 64.3517 39.5006 64.492H22.3953ZM53.4939 46.198C55.7959 48.5 55.7959 52.2322 53.4939 54.5342L41.3986 42.439C37.0206 46.817 37.0206 53.9152 41.3986 58.2932L53.4939 46.198ZM57.7227 50.4268L53.4939 46.198L41.3986 58.2932L45.6275 62.522L57.7227 50.4268ZM49.3864 50.4268C51.6884 48.1248 55.4207 48.1248 57.7227 50.4268L45.6275 62.5221C50.0055 66.9 57.1037 66.9001 61.4817 62.522L49.3864 50.4268ZM49.3864 58.7631C47.0844 56.4611 47.0844 52.7288 49.3864 50.4268L61.4817 62.522C65.8597 58.144 65.8597 51.0459 61.4817 46.6678L49.3864 58.7631ZM45.1576 54.5342L49.3864 58.7631L61.4817 46.6678L57.2529 42.439L45.1576 54.5342ZM53.4939 54.5343C51.1919 56.8362 47.4596 56.8363 45.1576 54.5342L57.2529 42.439C52.8748 38.061 45.7767 38.061 41.3987 42.439L53.4939 54.5343ZM35.761 42.7146C31.3829 38.3366 24.2848 38.3366 19.9067 42.7146L32.002 54.8098C29.7 57.1118 25.9677 57.1118 23.6657 54.8098L35.761 42.7146ZM35.761 58.5688C40.139 54.1908 40.139 47.0926 35.761 42.7146L23.6657 54.8098C21.3637 52.5078 21.3637 48.7755 23.6657 46.4735L35.761 58.5688ZM31.5321 62.7976L35.761 58.5688L23.6657 46.4735L19.4369 50.7024L31.5321 62.7976ZM15.6779 62.7976C20.0559 67.1757 27.1541 67.1756 31.5321 62.7976L19.4369 50.7024C21.7389 48.4004 25.4712 48.4004 27.7732 50.7024L15.6779 62.7976ZM15.6779 46.9434C11.2999 51.3214 11.2999 58.4196 15.6779 62.7976L27.7732 50.7024C30.0752 53.0044 30.0752 56.7367 27.7732 59.0387L15.6779 46.9434ZM19.9068 42.7146L15.6779 46.9434L27.7732 59.0387L32.002 54.8098L19.9068 42.7146Z" fill="#FFD25D" mask="url(#path-1-outside-1)"/>
<path d="M44.9247 25.126C44.9247 21.9429 47.41 19.3625 50.4757 19.3625C53.5414 19.3625 56.0267 21.9429 56.0267 25.126V26.2787C56.0267 29.4618 53.5414 32.0422 50.4757 32.0422C47.41 32.0422 44.9247 29.4618 44.9247 26.2787V25.126Z" fill="#FFD25D"/>
<path d="M27.1616 19.3625C24.0959 19.3625 21.6106 21.9429 21.6106 25.126V26.2787C21.6106 29.4618 24.0959 32.0422 27.1616 32.0422C30.2273 32.0422 32.7126 29.4618 32.7126 26.2787V25.126C32.7126 21.9429 30.2273 19.3625 27.1616 19.3625Z" fill="#FFD25D"/>
<path d="M38.8194 29.3251L33.3853 34.7592H44.2535L38.8194 29.3251Z" fill="#FFD25D"/>
<mask id="path-5-outside-2" maskUnits="userSpaceOnUse" x="11" y="7" width="55" height="70" fill="black">
<rect fill="white" x="11" y="7" width="55" height="70"/>
<path fill-rule="evenodd" clip-rule="evenodd" d="M28.7424 11C21.1527 11 15 17.1527 15 24.7424C15 31.4975 19.8737 37.1141 26.2966 38.2679V41.2347C26.2966 43.2531 27.9329 44.8894 29.9514 44.8894C31.9511 44.8894 33.5757 43.2834 33.6057 41.2908C34.0384 41.461 34.4819 41.6097 34.9349 41.7356V43.2281C34.9349 45.2465 36.5712 46.8828 38.5896 46.8828C40.6081 46.8828 42.2443 45.2465 42.2443 43.2281V41.7355C42.6976 41.6096 43.1414 41.4608 43.5744 41.2905C43.6042 43.2832 45.2289 44.8894 47.2287 44.8894C49.2471 44.8894 50.8834 43.2531 50.8834 41.2347V38.2844C57.3527 37.1688 62.274 31.5304 62.274 24.7424C62.274 17.1527 56.1213 11 48.5316 11H28.7424ZM38.5896 48.2119C37.1694 48.2119 35.9383 49.022 35.3334 50.2053H33.6059C32.5049 50.2053 31.6124 51.0978 31.6124 52.1988C31.6124 53.2998 32.5049 54.1923 33.6059 54.1923H34.9349V55.8536C34.9349 55.9655 34.9399 56.0763 34.9498 56.1857H33.6059C32.5049 56.1857 31.6124 57.0782 31.6124 58.1792C31.6124 59.2802 32.5049 60.1727 33.6059 60.1727H43.5733C44.6743 60.1727 45.5668 59.2802 45.5668 58.1792C45.5668 57.0782 44.6743 56.1857 43.5733 56.1857H42.2295C42.2393 56.0763 42.2443 55.9655 42.2443 55.8536V54.1923H43.5733C44.6743 54.1923 45.5668 53.2998 45.5668 52.1988C45.5668 51.0978 44.6743 50.2053 43.5733 50.2053H41.8458C41.2409 49.022 40.0099 48.2119 38.5896 48.2119ZM30.948 64.492C30.948 63.2075 31.9892 62.1663 33.2737 62.1663H33.606H42.909H43.2412C44.5256 62.1663 45.5669 63.2075 45.5669 64.492C45.5669 64.5457 45.5651 64.5989 45.5615 64.6516C45.5652 64.7087 45.567 64.7663 45.567 64.8243V70.1402C45.567 71.6082 44.377 72.7982 42.909 72.7982C41.4411 72.7982 40.251 71.6082 40.251 70.1402V66.8177H36.2639V70.1402C36.2639 71.6082 35.0739 72.7982 33.606 72.7982C32.138 72.7982 30.948 71.6082 30.948 70.1402V64.8243C30.948 64.7666 30.9498 64.7093 30.9534 64.6526C30.9498 64.5995 30.948 64.546 30.948 64.492ZM47.4463 48.4866C46.4083 49.5246 46.4083 51.2076 47.4463 52.2456L51.6751 56.4744C52.7131 57.5124 54.3961 57.5124 55.4341 56.4744C56.4721 55.4364 56.4721 53.7535 55.4341 52.7155L51.2052 48.4866C50.1672 47.4486 48.4843 47.4486 47.4463 48.4866ZM25.9544 48.7622C26.9924 47.7242 28.6753 47.7242 29.7133 48.7622C30.7513 49.8002 30.7513 51.4832 29.7133 52.5212L25.4845 56.75C24.4465 57.788 22.7636 57.788 21.7255 56.75C20.6875 55.712 20.6875 54.029 21.7255 52.991L25.9544 48.7622Z"/>
</mask>
<path fill-rule="evenodd" clip-rule="evenodd" d="M28.7424 11C21.1527 11 15 17.1527 15 24.7424C15 31.4975 19.8737 37.1141 26.2966 38.2679V41.2347C26.2966 43.2531 27.9329 44.8894 29.9514 44.8894C31.9511 44.8894 33.5757 43.2834 33.6057 41.2908C34.0384 41.461 34.4819 41.6097 34.9349 41.7356V43.2281C34.9349 45.2465 36.5712 46.8828 38.5896 46.8828C40.6081 46.8828 42.2443 45.2465 42.2443 43.2281V41.7355C42.6976 41.6096 43.1414 41.4608 43.5744 41.2905C43.6042 43.2832 45.2289 44.8894 47.2287 44.8894C49.2471 44.8894 50.8834 43.2531 50.8834 41.2347V38.2844C57.3527 37.1688 62.274 31.5304 62.274 24.7424C62.274 17.1527 56.1213 11 48.5316 11H28.7424ZM38.5896 48.2119C37.1694 48.2119 35.9383 49.022 35.3334 50.2053H33.6059C32.5049 50.2053 31.6124 51.0978 31.6124 52.1988C31.6124 53.2998 32.5049 54.1923 33.6059 54.1923H34.9349V55.8536C34.9349 55.9655 34.9399 56.0763 34.9498 56.1857H33.6059C32.5049 56.1857 31.6124 57.0782 31.6124 58.1792C31.6124 59.2802 32.5049 60.1727 33.6059 60.1727H43.5733C44.6743 60.1727 45.5668 59.2802 45.5668 58.1792C45.5668 57.0782 44.6743 56.1857 43.5733 56.1857H42.2295C42.2393 56.0763 42.2443 55.9655 42.2443 55.8536V54.1923H43.5733C44.6743 54.1923 45.5668 53.2998 45.5668 52.1988C45.5668 51.0978 44.6743 50.2053 43.5733 50.2053H41.8458C41.2409 49.022 40.0099 48.2119 38.5896 48.2119ZM30.948 64.492C30.948 63.2075 31.9892 62.1663 33.2737 62.1663H33.606H42.909H43.2412C44.5256 62.1663 45.5669 63.2075 45.5669 64.492C45.5669 64.5457 45.5651 64.5989 45.5615 64.6516C45.5652 64.7087 45.567 64.7663 45.567 64.8243V70.1402C45.567 71.6082 44.377 72.7982 42.909 72.7982C41.4411 72.7982 40.251 71.6082 40.251 70.1402V66.8177H36.2639V70.1402C36.2639 71.6082 35.0739 72.7982 33.606 72.7982C32.138 72.7982 30.948 71.6082 30.948 70.1402V64.8243C30.948 64.7666 30.9498 64.7093 30.9534 64.6526C30.9498 64.5995 30.948 64.546 30.948 64.492ZM47.4463 48.4866C46.4083 49.5246 46.4083 51.2076 47.4463 52.2456L51.6751 56.4744C52.7131 57.5124 54.3961 57.5124 55.4341 56.4744C56.4721 55.4364 56.4721 53.7535 55.4341 52.7155L51.2052 48.4866C50.1672 47.4486 48.4843 47.4486 47.4463 48.4866ZM25.9544 48.7622C26.9924 47.7242 28.6753 47.7242 29.7133 48.7622C30.7513 49.8002 30.7513 51.4832 29.7133 52.5212L25.4845 56.75C24.4465 57.788 22.7636 57.788 21.7255 56.75C20.6875 55.712 20.6875 54.029 21.7255 52.991L25.9544 48.7622Z" fill="white"/>
<path d="M26.2966 38.2679H29.7177V35.4066L26.9015 34.9007L26.2966 38.2679ZM33.6057 41.2908L34.8578 38.1072L30.2594 36.2986L30.185 41.2393L33.6057 41.2908ZM34.9349 41.7356H38.3559V39.1354L35.8506 38.4393L34.9349 41.7356ZM42.2443 41.7355L41.3285 38.4393L38.8233 39.1354V41.7355H42.2443ZM43.5744 41.2905L46.995 41.2393L46.9211 36.2976L42.322 38.1069L43.5744 41.2905ZM50.8834 38.2844L50.302 34.9131L47.4624 35.4028V38.2844H50.8834ZM35.3334 50.2053V53.6264H37.4267L38.3795 51.7625L35.3334 50.2053ZM34.9349 54.1923H38.3559V50.7713H34.9349V54.1923ZM34.9498 56.1857V59.6067H38.6928L38.357 55.8788L34.9498 56.1857ZM42.2295 56.1857L38.8222 55.8788L38.4864 59.6067H42.2295V56.1857ZM42.2443 54.1923V50.7713H38.8233V54.1923H42.2443ZM41.8458 50.2053L38.7997 51.7625L39.7525 53.6264H41.8458V50.2053ZM45.5615 64.6516L42.1483 64.4202L42.133 64.6454L42.1475 64.8705L45.5615 64.6516ZM40.251 66.8177H43.6721V63.3967H40.251V66.8177ZM36.2639 66.8177V63.3967H32.8429V66.8177H36.2639ZM30.9534 64.6526L34.3675 64.8703L34.3819 64.645L34.3665 64.4199L30.9534 64.6526ZM47.4463 52.2456L45.0272 54.6646L45.0272 54.6646L47.4463 52.2456ZM47.4463 48.4866L45.0272 46.0676L45.0272 46.0676L47.4463 48.4866ZM51.6751 56.4744L49.256 58.8935L49.2561 58.8935L51.6751 56.4744ZM29.7133 48.7622L27.2943 51.1813L27.2943 51.1813L29.7133 48.7622ZM25.9544 48.7622L28.3734 51.1813L28.3734 51.1813L25.9544 48.7622ZM29.7133 52.5212L32.1324 54.9402L32.1324 54.9402L29.7133 52.5212ZM25.4845 56.75L27.9036 59.1691L27.9036 59.169L25.4845 56.75ZM21.7255 56.75L19.3065 59.169L19.3065 59.169L21.7255 56.75ZM21.7255 52.991L24.1446 55.4101L24.1446 55.4101L21.7255 52.991ZM18.4211 24.7424C18.4211 19.0421 23.0421 14.4211 28.7424 14.4211V7.57895C19.2633 7.57895 11.5789 15.2633 11.5789 24.7424H18.4211ZM26.9015 34.9007C22.0798 34.0346 18.4211 29.8123 18.4211 24.7424H11.5789C11.5789 33.1826 17.6677 40.1937 25.6918 41.6351L26.9015 34.9007ZM29.7177 41.2347V38.2679H22.8756V41.2347H29.7177ZM29.9514 41.4684C29.8223 41.4684 29.7177 41.3637 29.7177 41.2347H22.8756C22.8756 45.1425 26.0435 48.3105 29.9514 48.3105V41.4684ZM30.185 41.2393C30.1831 41.3656 30.0789 41.4684 29.9514 41.4684V48.3105C33.8232 48.3105 36.9682 45.2012 37.0263 41.3424L30.185 41.2393ZM32.3535 44.4745C32.8957 44.6877 33.4514 44.874 34.0191 45.0318L35.8506 38.4393C35.5123 38.3454 35.1811 38.2343 34.8578 38.1072L32.3535 44.4745ZM38.3559 43.2281V41.7356H31.5138V43.2281H38.3559ZM38.5896 43.4618C38.4606 43.4618 38.3559 43.3571 38.3559 43.2281H31.5138C31.5138 47.1359 34.6818 50.3039 38.5896 50.3039V43.4618ZM38.8233 43.2281C38.8233 43.3571 38.7187 43.4618 38.5896 43.4618V50.3039C42.4975 50.3039 45.6654 47.1359 45.6654 43.2281H38.8233ZM38.8233 41.7355V43.2281H45.6654V41.7355H38.8233ZM43.1602 45.0317C43.7282 44.8739 44.2843 44.6874 44.8268 44.474L42.322 38.1069C41.9985 38.2341 41.6671 38.3453 41.3285 38.4393L43.1602 45.0317ZM47.2287 41.4684C47.1011 41.4684 46.9969 41.3656 46.995 41.2393L40.1537 41.3416C40.2114 45.2008 43.3566 48.3105 47.2287 48.3105V41.4684ZM47.4624 41.2347C47.4624 41.3637 47.3577 41.4684 47.2287 41.4684V48.3105C51.1365 48.3105 54.3045 45.1425 54.3045 41.2347H47.4624ZM47.4624 38.2844V41.2347H54.3045V38.2844H47.4624ZM58.853 24.7424C58.853 29.8371 55.1584 34.0757 50.302 34.9131L51.4648 41.6557C59.547 40.262 65.6951 33.2236 65.6951 24.7424H58.853ZM48.5316 14.4211C54.2319 14.4211 58.853 19.0421 58.853 24.7424H65.6951C65.6951 15.2633 58.0107 7.57895 48.5316 7.57895V14.4211ZM28.7424 14.4211H48.5316V7.57895H28.7424V14.4211ZM38.3795 51.7625C38.3987 51.7249 38.4303 51.69 38.4685 51.6662C38.5016 51.6455 38.5389 51.6329 38.5896 51.6329V44.7908C35.835 44.7908 33.4542 46.3656 32.2873 48.6481L38.3795 51.7625ZM33.6059 53.6264H35.3334V46.7843H33.6059V53.6264ZM35.0334 52.1988C35.0334 52.9872 34.3943 53.6264 33.6059 53.6264V46.7843C30.6155 46.7843 28.1913 49.2085 28.1913 52.1988H35.0334ZM33.6059 50.7713C34.3943 50.7713 35.0334 51.4104 35.0334 52.1988H28.1913C28.1913 55.1892 30.6155 57.6134 33.6059 57.6134V50.7713ZM34.9349 50.7713H33.6059V57.6134H34.9349V50.7713ZM38.3559 55.8536V54.1923H31.5138V55.8536H38.3559ZM38.357 55.8788C38.3563 55.8713 38.3559 55.8629 38.3559 55.8536H31.5138C31.5138 56.0681 31.5235 56.2813 31.5425 56.4926L38.357 55.8788ZM33.6059 59.6067H34.9498V52.7646H33.6059V59.6067ZM35.0334 58.1792C35.0334 58.9676 34.3943 59.6067 33.6059 59.6067V52.7646C30.6155 52.7646 28.1913 55.1888 28.1913 58.1792H35.0334ZM33.6059 56.7516C34.3943 56.7516 35.0334 57.3908 35.0334 58.1792H28.1913C28.1913 61.1696 30.6155 63.5937 33.6059 63.5937V56.7516ZM43.5733 56.7516H33.6059V63.5937H43.5733V56.7516ZM42.1458 58.1792C42.1458 57.3908 42.7849 56.7516 43.5733 56.7516V63.5937C46.5637 63.5937 48.9879 61.1696 48.9879 58.1792H42.1458ZM43.5733 59.6067C42.7849 59.6067 42.1458 58.9676 42.1458 58.1792H48.9879C48.9879 55.1888 46.5637 52.7646 43.5733 52.7646V59.6067ZM42.2295 59.6067H43.5733V52.7646H42.2295V59.6067ZM38.8233 55.8536C38.8233 55.8629 38.8229 55.8713 38.8222 55.8788L45.6367 56.4926C45.6557 56.2813 45.6654 56.0681 45.6654 55.8536H38.8233ZM38.8233 54.1923V55.8536H45.6654V54.1923H38.8233ZM43.5733 50.7713H42.2443V57.6134H43.5733V50.7713ZM42.1458 52.1988C42.1458 51.4104 42.7849 50.7713 43.5733 50.7713V57.6134C46.5637 57.6134 48.9879 55.1892 48.9879 52.1988H42.1458ZM43.5733 53.6264C42.7849 53.6264 42.1458 52.9872 42.1458 52.1988H48.9879C48.9879 49.2084 46.5637 46.7843 43.5733 46.7843V53.6264ZM41.8458 53.6264H43.5733V46.7843H41.8458V53.6264ZM38.5896 51.6329C38.6403 51.6329 38.6776 51.6455 38.7107 51.6662C38.749 51.69 38.7805 51.7249 38.7997 51.7625L44.8919 48.6481C43.7251 46.3656 41.3442 44.7908 38.5896 44.7908V51.6329ZM33.2737 58.7452C30.0998 58.7452 27.5269 61.3181 27.5269 64.492H34.369C34.369 65.0969 33.8786 65.5873 33.2737 65.5873V58.7452ZM33.606 58.7452H33.2737V65.5873H33.606V58.7452ZM42.909 58.7452H33.606V65.5873H42.909V58.7452ZM43.2412 58.7452H42.909V65.5873H43.2412V58.7452ZM48.9879 64.492C48.9879 61.3181 46.415 58.7452 43.2412 58.7452V65.5873C42.6362 65.5873 42.1458 65.0969 42.1458 64.492H48.9879ZM48.9747 64.8831C48.9835 64.7533 48.9879 64.6229 48.9879 64.492H42.1458C42.1458 64.4685 42.1466 64.4445 42.1483 64.4202L48.9747 64.8831ZM48.9881 64.8243C48.9881 64.6933 48.9839 64.5627 48.9755 64.4328L42.1475 64.8705C42.1464 64.8547 42.146 64.8393 42.146 64.8243H48.9881ZM48.9881 70.1402V64.8243H42.146V70.1402H48.9881ZM42.909 76.2193C46.2664 76.2193 48.9881 73.4976 48.9881 70.1402H42.146C42.146 69.7188 42.4876 69.3772 42.909 69.3772V76.2193ZM36.83 70.1402C36.83 73.4976 39.5517 76.2193 42.909 76.2193V69.3772C43.3305 69.3772 43.6721 69.7188 43.6721 70.1402H36.83ZM36.83 66.8177V70.1402H43.6721V66.8177H36.83ZM36.2639 70.2388H40.251V63.3967H36.2639V70.2388ZM39.685 70.1402V66.8177H32.8429V70.1402H39.685ZM33.606 76.2193C36.9633 76.2193 39.685 73.4976 39.685 70.1402H32.8429C32.8429 69.7188 33.1845 69.3772 33.606 69.3772V76.2193ZM27.5269 70.1402C27.5269 73.4976 30.2486 76.2193 33.606 76.2193V69.3772C34.0274 69.3772 34.369 69.7188 34.369 70.1402H27.5269ZM27.5269 64.8243V70.1402H34.369V64.8243H27.5269ZM27.5393 64.4349C27.5311 64.5641 27.5269 64.6939 27.5269 64.8243H34.369C34.369 64.8392 34.3685 64.8546 34.3675 64.8703L27.5393 64.4349ZM27.5269 64.492C27.5269 64.6237 27.5314 64.7549 27.5403 64.8853L34.3665 64.4199C34.3682 64.4442 34.369 64.4683 34.369 64.492H27.5269ZM49.8653 49.8265C50.1633 50.1245 50.1633 50.6077 49.8653 50.9057L45.0272 46.0676C42.6532 48.4416 42.6532 52.2906 45.0272 54.6646L49.8653 49.8265ZM54.0941 54.0554L49.8653 49.8265L45.0272 54.6646L49.256 58.8935L54.0941 54.0554ZM53.015 54.0554C53.313 53.7574 53.7962 53.7574 54.0941 54.0554L49.2561 58.8935C51.6301 61.2675 55.4791 61.2675 57.8531 58.8935L53.015 54.0554ZM53.015 55.1345C52.717 54.8365 52.717 54.3534 53.015 54.0554L57.8531 58.8935C60.2271 56.5195 60.2271 52.6704 57.8531 50.2964L53.015 55.1345ZM48.7862 50.9057L53.015 55.1345L57.8531 50.2964L53.6243 46.0676L48.7862 50.9057ZM49.8653 50.9057C49.5673 51.2037 49.0842 51.2037 48.7862 50.9057L53.6243 46.0676C51.2503 43.6936 47.4012 43.6936 45.0272 46.0676L49.8653 50.9057ZM32.1324 46.3432C29.7584 43.9691 25.9093 43.9691 23.5353 46.3432L28.3734 51.1813C28.0754 51.4793 27.5923 51.4793 27.2943 51.1813L32.1324 46.3432ZM32.1324 54.9402C34.5064 52.5662 34.5064 48.7172 32.1324 46.3432L27.2943 51.1813C26.9963 50.8833 26.9963 50.4001 27.2943 50.1021L32.1324 54.9402ZM27.9036 59.169L32.1324 54.9402L27.2943 50.1021L23.0655 54.331L27.9036 59.169ZM19.3065 59.169C21.6805 61.5431 25.5295 61.5431 27.9036 59.1691L23.0655 54.3309C23.3634 54.033 23.8466 54.0329 24.1446 54.331L19.3065 59.169ZM19.3065 50.572C16.9325 52.946 16.9325 56.795 19.3065 59.169L24.1446 54.331C24.4426 54.6289 24.4426 55.1121 24.1446 55.4101L19.3065 50.572ZM23.5353 46.3432L19.3065 50.572L24.1446 55.4101L28.3734 51.1813L23.5353 46.3432Z" fill="black" mask="url(#path-5-outside-2)"/>
<path d="M44.9247 25.126C44.9247 21.9429 47.41 19.3625 50.4757 19.3625C53.5414 19.3625 56.0267 21.9429 56.0267 25.126V26.2787C56.0267 29.4618 53.5414 32.0422 50.4757 32.0422C47.41 32.0422 44.9247 29.4618 44.9247 26.2787V25.126Z" fill="black"/>
<path d="M27.1616 19.3625C24.0959 19.3625 21.6106 21.9429 21.6106 25.126V26.2787C21.6106 29.4618 24.0959 32.0422 27.1616 32.0422C30.2273 32.0422 32.7126 29.4618 32.7126 26.2787V25.126C32.7126 21.9429 30.2273 19.3625 27.1616 19.3625Z" fill="black"/>
<path d="M38.8194 29.3251L33.3853 34.7592H44.2535L38.8194 29.3251Z" fill="black"/>
</svg>
