<svg width="42" height="42" viewBox="0 0 42 42" fill="none" xmlns="http://www.w3.org/2000/svg">
<path d="M0 20.5263C0 9.18995 9.18995 0 20.5263 0V0C31.8627 0 41.0526 9.18995 41.0526 20.5263V20.5263C41.0526 31.8627 31.8627 41.0526 20.5263 41.0526V41.0526C9.18995 41.0526 0 31.8627 0 20.5263V20.5263Z" fill="black"/>
<path d="M20.6897 25.4588C18.9431 25.4588 18.9162 23.9272 18.9162 22.288C19.4805 21.9656 20.0716 21.8044 20.5822 21.8044C21.6839 21.8044 22.275 22.5836 22.275 23.7391C22.275 24.7064 21.8451 25.4588 20.6897 25.4588ZM21.9795 10.8411C15.1811 10.8411 13.4883 16.5108 13.4883 21.5356C13.4883 26.9098 15.0737 30.3493 20.6897 30.3493C24.7203 30.3493 27.5148 27.4472 27.5148 23.5241C27.5148 19.1173 24.9352 17.3707 21.872 17.3707C20.5016 17.3707 19.6417 17.8006 19.2118 17.9887C19.4536 16.9407 20.2329 15.7584 22.3557 15.7584C23.4842 15.7584 24.2366 16.054 24.6665 16.269L26.655 11.9696C25.9295 11.5666 24.3978 10.8411 21.9795 10.8411Z" fill="#FFD25D"/>
</svg>
