<svg width="77" height="84" viewBox="0 0 77 84" fill="none" xmlns="http://www.w3.org/2000/svg">
<path fill-rule="evenodd" clip-rule="evenodd" d="M28.6055 11C21.0157 11 14.863 17.1527 14.863 24.7424C14.863 31.4975 19.7368 37.1141 26.1597 38.2679V41.2347C26.1597 43.2531 27.796 44.8894 29.8144 44.8894C31.8141 44.8894 33.4387 43.2834 33.4687 41.2908C33.9014 41.461 34.3449 41.6097 34.7979 41.7356V43.2281C34.7979 45.2465 36.4342 46.8828 38.4526 46.8828C40.4711 46.8828 42.1074 45.2465 42.1074 43.2281V41.7355C42.5607 41.6096 43.0045 41.4608 43.4374 41.2905C43.4672 43.2832 45.0919 44.8894 47.0917 44.8894C49.1102 44.8894 50.7465 43.2531 50.7465 41.2347V38.2844C57.2157 37.1688 62.1371 31.5304 62.1371 24.7424C62.1371 17.1527 55.9844 11 48.3946 11H28.6055ZM38.4526 48.2119C37.0324 48.2119 35.8014 49.022 35.1964 50.2053H33.4689C32.3679 50.2053 31.4754 51.0978 31.4754 52.1988C31.4754 53.2998 32.3679 54.1923 33.4689 54.1923H34.7979V55.8536C34.7979 55.9655 34.8029 56.0763 34.8128 56.1857H33.4689C32.3679 56.1857 31.4754 57.0782 31.4754 58.1792C31.4754 59.2802 32.3679 60.1727 33.4689 60.1727H43.4364C44.5373 60.1727 45.4299 59.2802 45.4299 58.1792C45.4299 57.0782 44.5373 56.1857 43.4364 56.1857H42.0925C42.1023 56.0763 42.1074 55.9655 42.1074 55.8536V54.1923H43.4364C44.5373 54.1923 45.4299 53.2998 45.4299 52.1988C45.4299 51.0978 44.5373 50.2053 43.4364 50.2053H41.7089C41.1039 49.022 39.8729 48.2119 38.4526 48.2119ZM30.811 64.492C30.811 63.2075 31.8523 62.1663 33.1367 62.1663H33.469H42.7721H43.1042C44.3887 62.1663 45.4299 63.2075 45.4299 64.492C45.4299 64.5457 45.4281 64.5989 45.4245 64.6516C45.4282 64.7087 45.4301 64.7663 45.4301 64.8243V70.1402C45.4301 71.6082 44.24 72.7982 42.7721 72.7982C41.3041 72.7982 40.1141 71.6082 40.1141 70.1402V66.8177H36.127V70.1402C36.127 71.6082 34.937 72.7982 33.469 72.7982C32.001 72.7982 30.811 71.6082 30.811 70.1402V64.8243C30.811 64.7666 30.8128 64.7093 30.8165 64.6526C30.8128 64.5995 30.811 64.546 30.811 64.492ZM47.3093 48.4866C46.2713 49.5246 46.2713 51.2076 47.3093 52.2456L51.5381 56.4744C52.5761 57.5124 54.2591 57.5124 55.2971 56.4744C56.3351 55.4364 56.3351 53.7535 55.2971 52.7155L51.0683 48.4866C50.0303 47.4486 48.3473 47.4486 47.3093 48.4866ZM25.8174 48.7622C26.8554 47.7242 28.5384 47.7242 29.5764 48.7622C30.6144 49.8002 30.6144 51.4832 29.5764 52.5212L25.3475 56.75C24.3095 57.788 22.6266 57.788 21.5886 56.75C20.5506 55.712 20.5506 54.029 21.5886 52.991L25.8174 48.7622Z" fill="white"/>
<path fill-rule="evenodd" clip-rule="evenodd" d="M26.1596 38.2679C26.0887 38.2552 26.0181 38.2419 25.9476 38.2281C25.6155 38.163 25.2877 38.086 24.9646 37.9975C19.1418 36.4018 14.8629 31.0718 14.8629 24.7425C14.8629 17.1527 21.0156 11 28.6054 11H48.3945C55.9843 11 62.137 17.1527 62.137 24.7425C62.137 31.1055 57.8124 36.4586 51.942 38.0227C51.6226 38.1078 51.2986 38.1817 50.9705 38.2439C50.896 38.258 50.8213 38.2715 50.7464 38.2845V41.2347C50.7464 41.5073 50.7165 41.7729 50.6599 42.0285C50.5638 42.4624 50.3906 42.8673 50.1554 43.2281C50.0345 43.4135 49.8972 43.5873 49.7456 43.7474C49.3538 44.1611 48.8663 44.4832 48.3185 44.6784C47.935 44.815 47.522 44.8894 47.0916 44.8894C46.0153 44.8894 45.0476 44.4242 44.3788 43.6838C44.2504 43.5416 44.1329 43.3892 44.0279 43.2281C43.7405 42.7873 43.5456 42.2805 43.4709 41.7355C43.4672 41.708 43.4637 41.6804 43.4605 41.6527C43.447 41.5336 43.4391 41.4128 43.4373 41.2905C43.4084 41.3018 43.3794 41.3131 43.3504 41.3243C43.2399 41.3669 43.1287 41.4081 43.0169 41.4479C42.8112 41.521 42.6032 41.5893 42.3931 41.6527C42.2983 41.6813 42.203 41.7089 42.1073 41.7355V43.2281C42.1073 43.2469 42.1071 43.2656 42.1069 43.2843C42.0982 43.8617 41.9556 44.4066 41.7088 44.8894C41.5715 45.158 41.4019 45.4073 41.2052 45.6323C41.2031 45.6348 41.2009 45.6372 41.1988 45.6397C40.5449 46.3836 39.5936 46.8597 38.5307 46.882C38.5047 46.8826 38.4787 46.8828 38.4525 46.8828C38.3878 46.8828 38.3234 46.8811 38.2595 46.8778C37.243 46.8249 36.3365 46.3567 35.7063 45.6397C35.7047 45.6378 35.703 45.6359 35.7014 45.634C35.504 45.4086 35.334 45.1586 35.1963 44.8894C34.9846 44.4752 34.8496 44.0154 34.81 43.5285C34.8019 43.4294 34.7978 43.3293 34.7978 43.2281V41.7356C34.7978 41.7356 34.7979 41.7356 34.7978 41.7356C34.7021 41.709 34.6067 41.6813 34.5118 41.6527C34.4465 41.633 34.3813 41.6128 34.3163 41.5921C34.1726 41.5464 34.0298 41.4983 33.8882 41.4479C33.7763 41.4081 33.6651 41.3669 33.5546 41.3244C33.5259 41.3133 33.4972 41.3021 33.4686 41.2909C33.4668 41.413 33.4589 41.5338 33.4454 41.6527C33.4422 41.6804 33.4388 41.7081 33.435 41.7356C33.3603 42.2806 33.1655 42.7873 32.878 43.2281C32.7732 43.389 32.6559 43.5411 32.5277 43.6831C31.8589 44.4239 30.891 44.8894 29.8143 44.8894C29.3837 44.8894 28.9704 44.8149 28.5867 44.6782C28.0391 44.4829 27.5517 44.1607 27.16 43.747C27.0085 43.5871 26.8714 43.4134 26.7506 43.2281C26.5147 42.8663 26.3411 42.46 26.2452 42.0247C26.1891 41.7703 26.1596 41.5059 26.1596 41.2347V38.2679ZM18.0112 44.362C11.0429 40.5927 6.3103 33.2256 6.3103 24.7425C6.3103 12.4292 16.2921 2.44739 28.6054 2.44739H48.3945C60.7078 2.44739 70.6896 12.4292 70.6896 24.7425C70.6896 33.2121 65.9718 40.5698 59.0212 44.3444L61.3446 46.6679C65.7226 51.0459 65.7226 58.144 61.3446 62.5221C59.2994 64.5673 56.6605 65.6571 53.9826 65.7914V70.1403C53.9826 76.3317 48.9634 81.3509 42.772 81.3509C41.1126 81.3509 39.5374 80.9903 38.1204 80.3433C36.7035 80.9903 35.1283 81.3509 33.4689 81.3509C27.2774 81.3509 22.2583 76.3317 22.2583 70.1403V66.0161C19.8047 65.7513 17.4217 64.6785 15.5409 62.7976L21.5885 56.75C21.974 57.1355 22.4484 57.3778 22.9457 57.477C23.3917 57.5659 23.8562 57.5397 24.2914 57.3983C24.6776 57.2729 25.0407 57.0568 25.3474 56.75L29.5763 52.5212C29.6628 52.4346 29.7422 52.3436 29.8143 52.2488C29.8269 52.2323 29.8393 52.2156 29.8514 52.1988C29.8956 52.1379 29.9368 52.0755 29.9752 52.0118C30.5302 51.0905 30.4766 49.905 29.8143 49.0346C29.7422 48.9398 29.6628 48.8488 29.5763 48.7622C29.4803 48.6662 29.3788 48.5791 29.2727 48.5009C28.6723 48.0577 27.9276 47.8994 27.2241 48.0258C26.7088 48.1185 26.2156 48.364 25.8173 48.7622L22.9371 51.6424C22.9424 51.5398 22.9492 51.4376 22.9575 51.3358C22.5556 51.0625 22.1709 50.7658 21.8053 50.4477C21.7829 51.1344 21.8797 51.8243 22.096 52.4836L21.5885 52.9911C20.5505 54.0291 20.5505 55.712 21.5885 56.75L15.5409 62.7976C11.1628 58.4196 11.1628 51.3215 15.5409 46.9434M18.0347 44.4496L15.5409 46.9434ZM18.0112 44.362C18.0189 44.3912 18.0268 44.4204 18.0347 44.4496ZM31.7951 53.2822C31.8854 53.4215 31.9927 53.5487 32.1139 53.6611C32.1158 53.6628 32.1176 53.6646 32.1195 53.6663C32.3481 53.8766 32.626 54.0342 32.9338 54.1197C33.0001 54.1381 33.0678 54.1532 33.1366 54.1648C33.2447 54.1829 33.3556 54.1923 33.4688 54.1923H34.7978V55.8536C34.7978 55.9656 34.8028 56.0763 34.8127 56.1857H33.4689C33.3958 56.1857 33.3235 56.1897 33.2524 56.1973C33.2135 56.2015 33.1749 56.2069 33.1366 56.2133C32.9469 56.2451 32.7662 56.3037 32.5986 56.3852C31.9337 56.7083 31.4753 57.3902 31.4753 58.1792C31.4753 58.208 31.4759 58.2366 31.4771 58.2651C31.5174 59.2142 32.2213 59.9916 33.1366 60.1451C33.1405 60.1458 33.1444 60.1464 33.1483 60.1471C33.2526 60.1639 33.3597 60.1727 33.4688 60.1727H43.4363C43.5454 60.1727 43.6524 60.1639 43.7568 60.1471C44.6778 59.9982 45.3875 59.2183 45.4279 58.2651C45.4291 58.2366 45.4297 58.208 45.4297 58.1792C45.4297 57.3902 44.9714 56.7083 44.3064 56.3852C44.0435 56.2574 43.7482 56.1857 43.4363 56.1857H42.0924C42.1022 56.0763 42.1073 55.9656 42.1073 55.8536V54.1923H43.4363C43.6216 54.1923 43.801 54.167 43.9713 54.1197C44.2464 54.0432 44.4976 53.9093 44.711 53.7315C44.7364 53.7104 44.7612 53.6887 44.7855 53.6663C44.9091 53.5526 45.0183 53.4235 45.11 53.2821C45.3123 52.9702 45.4297 52.5982 45.4297 52.1988C45.4297 51.0979 44.5372 50.2053 43.4363 50.2053H41.7088C41.2874 49.3812 40.5624 48.7381 39.6813 48.4236C39.3662 48.3111 39.0312 48.2407 38.683 48.219C38.6698 48.2182 38.6567 48.2175 38.6434 48.2168C38.5802 48.2135 38.5166 48.2119 38.4525 48.2119C38.3751 48.2119 38.2983 48.2143 38.222 48.219C38.2093 48.2198 38.1966 48.2207 38.1839 48.2216C37.8496 48.2459 37.5278 48.3151 37.2245 48.4233C36.3431 48.7377 35.6178 49.381 35.1963 50.2053H33.4688C32.3678 50.2053 31.4753 51.0979 31.4753 52.1988C31.4753 52.5983 31.5928 52.9703 31.7951 53.2822ZM47.3975 48.4023C47.3676 48.4296 47.3381 48.4577 47.3092 48.4866C47.2307 48.5651 47.1582 48.6472 47.0916 48.7325C46.3654 49.6624 46.3444 50.9642 47.0285 51.9156C47.0489 51.944 47.07 51.972 47.0916 51.9997C47.1451 52.0682 47.2024 52.1347 47.2635 52.1988C47.2785 52.2146 47.2938 52.2302 47.3092 52.2456M47.3975 48.4023C48.0618 47.7954 48.9597 47.5864 49.7848 47.7755C50.2551 47.8832 50.7018 48.1203 51.0682 48.4866L53.9502 51.3687C53.9493 51.3579 53.9485 51.3471 53.9476 51.3364C54.3432 51.0674 54.7221 50.7758 55.0825 50.4634C55.0728 51.0533 54.9752 51.6419 54.7895 52.208L55.297 52.7155C56.335 53.7535 56.335 55.4364 55.297 56.4744C54.911 56.8605 54.4358 57.1029 53.9377 57.2018C53.5424 57.2803 53.1327 57.2684 52.7417 57.166C52.3007 57.0506 51.8836 56.82 51.538 56.4744L47.8167 52.7531M44.5682 62.6849C44.3843 62.5357 44.1772 62.414 43.9531 62.3261C43.7891 62.2618 43.616 62.2155 43.4363 62.1898C43.3278 62.1743 43.2169 62.1663 43.1041 62.1663H34.7978M30.8109 64.8775V64.8243C30.8109 64.7666 30.8127 64.7094 30.8164 64.6526C30.8127 64.5995 30.8109 64.546 30.8109 64.492C30.8109 63.7177 31.1893 63.0318 31.7713 62.6091C32.1115 62.3619 32.5214 62.2047 32.9659 62.1725C33.0222 62.1684 33.0792 62.1663 33.1366 62.1663M30.8109 64.8775V68.3876ZM30.8109 68.3876V70.1403C30.8109 70.9496 31.1726 71.6744 31.7431 72.1619C32.2075 72.5587 32.8102 72.7982 33.4689 72.7982C34.7381 72.7982 35.7996 71.9086 36.0637 70.7189C36.1051 70.5326 36.1269 70.339 36.1269 70.1403V66.8178H40.114V70.1403C40.114 70.339 40.1358 70.5326 40.1771 70.7189C40.4413 71.9086 41.5027 72.7982 42.772 72.7982C43.4306 72.7982 44.0333 72.5587 44.4977 72.1619C45.0683 71.6744 45.43 70.9496 45.43 70.1403V64.8243C45.43 64.7663 45.4281 64.7087 45.4244 64.6517C45.428 64.5989 45.4298 64.5457 45.4298 64.492C45.4298 63.7624 45.0939 63.1113 44.5682 62.6849M57.5857 50.4268L55.297 52.7155Z" fill="#FFD25D"/>
<path d="M44.7877 25.1261C44.7877 21.9431 47.273 19.3627 50.3387 19.3627C53.4045 19.3627 55.8897 21.9431 55.8897 25.1261V26.2788C55.8897 29.4619 53.4045 32.0423 50.3387 32.0423C47.273 32.0423 44.7877 29.4619 44.7877 26.2788V25.1261Z" fill="#FFD25D"/>
<path d="M27.0246 19.3627C23.9589 19.3627 21.4736 21.9431 21.4736 25.1261V26.2788C21.4736 29.4619 23.9589 32.0423 27.0246 32.0423C30.0904 32.0423 32.5756 29.4619 32.5756 26.2788V25.1261C32.5756 21.9431 30.0904 19.3627 27.0246 19.3627Z" fill="#FFD25D"/>
<path d="M38.6822 29.3252L33.248 34.7593H44.1163L38.6822 29.3252Z" fill="#FFD25D"/>
<path fill-rule="evenodd" clip-rule="evenodd" d="M28.6055 11C21.0157 11 14.863 17.1527 14.863 24.7424C14.863 31.4975 19.7368 37.1141 26.1597 38.2679V41.2347C26.1597 43.2531 27.796 44.8894 29.8144 44.8894C31.8141 44.8894 33.4387 43.2834 33.4687 41.2908C33.9014 41.461 34.3449 41.6097 34.7979 41.7356V43.2281C34.7979 45.2465 36.4342 46.8828 38.4526 46.8828C40.4711 46.8828 42.1074 45.2465 42.1074 43.2281V41.7355C42.5607 41.6096 43.0045 41.4608 43.4374 41.2905C43.4672 43.2832 45.0919 44.8894 47.0917 44.8894C49.1102 44.8894 50.7465 43.2531 50.7465 41.2347V38.2844C57.2157 37.1688 62.1371 31.5304 62.1371 24.7424C62.1371 17.1527 55.9844 11 48.3946 11H28.6055ZM38.4526 48.2119C37.0324 48.2119 35.8014 49.022 35.1964 50.2053H33.4689C32.3679 50.2053 31.4754 51.0978 31.4754 52.1988C31.4754 53.2998 32.3679 54.1923 33.4689 54.1923H34.7979V55.8536C34.7979 55.9655 34.8029 56.0763 34.8128 56.1857H33.4689C32.3679 56.1857 31.4754 57.0782 31.4754 58.1792C31.4754 59.2802 32.3679 60.1727 33.4689 60.1727H43.4364C44.5373 60.1727 45.4299 59.2802 45.4299 58.1792C45.4299 57.0782 44.5373 56.1857 43.4364 56.1857H42.0925C42.1023 56.0763 42.1074 55.9655 42.1074 55.8536V54.1923H43.4364C44.5373 54.1923 45.4299 53.2998 45.4299 52.1988C45.4299 51.0978 44.5373 50.2053 43.4364 50.2053H41.7089C41.1039 49.022 39.8729 48.2119 38.4526 48.2119ZM30.811 64.492C30.811 63.2075 31.8523 62.1663 33.1367 62.1663H33.469H42.7721H43.1042C44.3887 62.1663 45.4299 63.2075 45.4299 64.492C45.4299 64.5457 45.4281 64.5989 45.4245 64.6516C45.4282 64.7087 45.4301 64.7663 45.4301 64.8243V70.1402C45.4301 71.6082 44.24 72.7982 42.7721 72.7982C41.3041 72.7982 40.1141 71.6082 40.1141 70.1402V66.8177H36.127V70.1402C36.127 71.6082 34.937 72.7982 33.469 72.7982C32.001 72.7982 30.811 71.6082 30.811 70.1402V64.8243C30.811 64.7666 30.8128 64.7093 30.8165 64.6526C30.8128 64.5995 30.811 64.546 30.811 64.492ZM47.3093 48.4866C46.2713 49.5246 46.2713 51.2076 47.3093 52.2456L51.5381 56.4744C52.5761 57.5124 54.2591 57.5124 55.2971 56.4744C56.3351 55.4364 56.3351 53.7535 55.2971 52.7155L51.0683 48.4866C50.0303 47.4486 48.3473 47.4486 47.3093 48.4866ZM25.8174 48.7622C26.8554 47.7242 28.5384 47.7242 29.5764 48.7622C30.6144 49.8002 30.6144 51.4832 29.5764 52.5212L25.3475 56.75C24.3095 57.788 22.6266 57.788 21.5886 56.75C20.5506 55.712 20.5506 54.029 21.5886 52.991L25.8174 48.7622Z" fill="white"/>
<path fill-rule="evenodd" clip-rule="evenodd" d="M32.5987 56.3852C32.8616 56.2574 33.1568 56.1857 33.4688 56.1857H34.8127C34.8029 56.0763 34.7978 55.9656 34.7978 55.8536V54.1923H33.4688C33.2082 54.1923 32.9592 54.1423 32.731 54.0513C32.2684 53.8669 31.8911 53.5143 31.6747 53.069C31.547 52.806 31.4753 52.5108 31.4753 52.1988C31.4753 51.0979 32.3678 50.2054 33.4688 50.2054H35.1963C35.2921 50.0181 35.4034 49.8403 35.5287 49.6735C36.1955 48.786 37.257 48.2119 38.4526 48.2119C39.6481 48.2119 40.7096 48.786 41.3764 49.6735C41.5017 49.8403 41.6131 50.0181 41.7088 50.2054H43.4363C44.5372 50.2054 45.4298 51.0979 45.4298 52.1988C45.4298 52.5108 45.3581 52.806 45.2303 53.069C45.0353 53.4704 44.7095 53.7965 44.3083 53.992C44.0449 54.1203 43.749 54.1923 43.4363 54.1923H42.1073V55.8536C42.1073 55.9656 42.1023 56.0763 42.0924 56.1857H43.4363C43.7483 56.1857 44.0435 56.2574 44.3064 56.3852C44.7085 56.5805 45.035 56.907 45.2303 57.3091C45.3581 57.572 45.4298 57.8672 45.4298 58.1792C45.4298 58.5252 45.3416 58.8506 45.1866 59.1342C44.8482 59.753 44.1913 60.1727 43.4363 60.1727H33.4689C33.3557 60.1727 33.2447 60.1633 33.1367 60.1452C32.4529 60.0305 31.8872 59.5677 31.6279 58.9454C31.5296 58.7095 31.4753 58.4507 31.4753 58.1792C31.4753 57.8672 31.547 57.572 31.6747 57.3091C31.8701 56.907 32.1966 56.5805 32.5987 56.3852ZM28.0943 58.8412C28.1802 59.5455 28.4013 60.208 28.7308 60.8021C27.8938 61.8004 27.3899 63.0874 27.3899 64.492C27.3899 64.5467 27.3906 64.6013 27.3922 64.6558C27.3906 64.7119 27.3899 64.768 27.3899 64.8243V70.1403C27.3899 73.4976 30.1115 76.2193 33.4689 76.2193C35.3353 76.2193 37.0053 75.3782 38.1204 74.0543C39.2356 75.3782 40.9055 76.2193 42.772 76.2193C46.1293 76.2193 48.851 73.4976 48.851 70.1403V64.8243C48.851 64.7673 48.8502 64.7104 48.8486 64.6536C48.8501 64.5998 48.8509 64.546 48.8509 64.492C48.8509 63.304 48.4904 62.2002 47.8728 61.284C48.412 60.5149 48.7563 59.5992 48.834 58.6085L49.119 58.8935C51.493 61.2675 55.342 61.2675 57.7161 58.8935C60.0901 56.5195 60.0901 52.6704 57.7161 50.2964L53.4872 46.0676C53.2613 45.8417 53.0221 45.6373 52.772 45.4544C53.6487 44.2763 54.1674 42.8161 54.1674 41.2347V40.91C60.8069 38.5387 65.558 32.1981 65.558 24.7425C65.558 15.2633 57.8737 7.57898 48.3945 7.57898H28.6054C19.1263 7.57898 11.4419 15.2633 11.4419 24.7425C11.4419 32.163 16.1483 38.4788 22.7385 40.8761V41.2347C22.7385 42.8926 23.3087 44.4174 24.2637 45.6235C23.959 45.8325 23.669 46.0724 23.3983 46.3432L19.1694 50.572C16.7954 52.946 16.7954 56.7951 19.1694 59.1691C21.5435 61.5431 25.3925 61.5431 27.7665 59.1691L28.0943 58.8412ZM28.3919 44.6023C27.0801 44.0475 26.1596 42.7486 26.1596 41.2347V38.2679C19.7367 37.1142 14.8629 31.4975 14.8629 24.7425C14.8629 17.1527 21.0157 11 28.6054 11H48.3945C55.9843 11 62.137 17.1527 62.137 24.7425C62.137 31.5304 57.2156 37.1689 50.7464 38.2845V41.2347C50.7464 42.5107 50.0924 43.634 49.1014 44.2877C48.5248 44.6681 47.8341 44.8894 47.0916 44.8894C46.9291 44.8894 46.7691 44.8788 46.6122 44.8583C46.1865 44.8025 45.7838 44.6734 45.4172 44.4841C45.0242 44.2812 44.6727 44.009 44.3788 43.6838C44.2504 43.5416 44.133 43.3893 44.0279 43.2281C43.7405 42.7873 43.5456 42.2806 43.4709 41.7355C43.451 41.5898 43.4396 41.4412 43.4373 41.2905C43.0044 41.4608 42.5606 41.6096 42.1073 41.7355V43.2281C42.1073 44.0479 41.8374 44.8046 41.3816 45.4142C41.3798 45.4167 41.378 45.4191 41.3762 45.4215C40.7094 46.3089 39.648 46.8828 38.4526 46.8828C37.2571 46.8828 36.1958 46.3089 35.5289 45.4215C35.5273 45.4193 35.5256 45.4171 35.5239 45.4148C35.0679 44.805 34.7978 44.0481 34.7978 43.2281V41.7356C34.3448 41.6097 33.9013 41.4611 33.4686 41.2909C33.4664 41.4415 33.455 41.5899 33.435 41.7356C33.3603 42.2806 33.1655 42.7873 32.8781 43.2281C32.7732 43.389 32.6559 43.5411 32.5277 43.6831C32.2336 44.0089 31.8816 44.2814 31.488 44.4845C30.9865 44.7433 30.4175 44.8894 29.8143 44.8894C29.7618 44.8894 29.7095 44.8883 29.6575 44.8861C29.2102 44.8672 28.7836 44.7679 28.3919 44.6023ZM28.8477 48.245C28.4806 48.0687 28.0815 47.9817 27.6827 47.9838C27.0072 47.9873 26.3327 48.2468 25.8173 48.7622L21.5885 52.9911C20.5505 54.0291 20.5505 55.712 21.5885 56.75C22.6265 57.788 24.3094 57.788 25.3475 56.75L29.5763 52.5212C29.678 52.4195 29.7697 52.3117 29.8514 52.1988C30.6043 51.1597 30.5126 49.6986 29.5763 48.7622C29.5234 48.7094 29.4689 48.6592 29.4129 48.6118C29.2375 48.4631 29.0473 48.3409 28.8477 48.245ZM47.3448 48.4517C47.3328 48.4632 47.321 48.4749 47.3092 48.4867C46.2867 49.5092 46.2714 51.1577 47.2636 52.1988C47.2785 52.2146 47.2938 52.2302 47.3092 52.2456L51.538 56.4744C52.5761 57.5125 54.259 57.5125 55.297 56.4744C56.335 55.4364 56.335 53.7535 55.297 52.7155L51.0682 48.4867C50.7036 48.1221 50.2595 47.8856 49.7917 47.7771C49.0139 47.5967 48.1708 47.7703 47.519 48.2978C47.4592 48.3461 47.4011 48.3974 47.3448 48.4517ZM45.1178 63.3276C44.7682 62.7243 44.1553 62.2927 43.4363 62.1898C43.3278 62.1743 43.2169 62.1663 43.1041 62.1663H33.1367C32.3641 62.1663 31.6795 62.543 31.2566 63.1227C30.9763 63.5068 30.8109 63.9801 30.8109 64.492C30.8109 64.546 30.8128 64.5996 30.8164 64.6526C30.8127 64.7094 30.8109 64.7666 30.8109 64.8243V70.1403C30.8109 71.6082 32.0009 72.7983 33.4689 72.7983C34.9369 72.7983 36.1269 71.6082 36.1269 70.1403V66.8178H40.114V70.1403C40.114 71.6082 41.304 72.7983 42.772 72.7983C44.2399 72.7983 45.43 71.6082 45.43 70.1403V64.8243C45.43 64.7663 45.4281 64.7087 45.4244 64.6517C45.428 64.5989 45.4298 64.5457 45.4298 64.492C45.4298 64.0678 45.3162 63.67 45.1178 63.3276Z" fill="black"/>
<path d="M44.7877 25.1261C44.7877 21.9431 47.273 19.3627 50.3387 19.3627C53.4045 19.3627 55.8897 21.9431 55.8897 25.1261V26.2788C55.8897 29.4619 53.4045 32.0423 50.3387 32.0423C47.273 32.0423 44.7877 29.4619 44.7877 26.2788V25.1261Z" fill="black"/>
<path d="M27.0246 19.3627C23.9589 19.3627 21.4736 21.9431 21.4736 25.1261V26.2788C21.4736 29.4619 23.9589 32.0423 27.0246 32.0423C30.0904 32.0423 32.5756 29.4619 32.5756 26.2788V25.1261C32.5756 21.9431 30.0904 19.3627 27.0246 19.3627Z" fill="black"/>
<path d="M38.6822 29.3252L33.248 34.7593H44.1163L38.6822 29.3252Z" fill="black"/>
</svg>
